<?xml version="1.0" encoding="utf-8"?>
<!-- Generator: Adobe Illustrator 15.0.0, SVG Export Plug-In . SVG Version: 6.00 Build 0)  -->
<!DOCTYPE svg PUBLIC "-//W3C//DTD SVG 1.1//EN" "http://www.w3.org/Graphics/SVG/1.1/DTD/svg11.dtd">
<svg version="1.1" id="圖層_1" xmlns="http://www.w3.org/2000/svg" xmlns:xlink="http://www.w3.org/1999/xlink" x="0px" y="0px"
	 width="62.196px" height="60px" viewBox="0 0 62.196 60" enable-background="new 0 0 62.196 60" xml:space="preserve">
<g>
	<path fill="#B5B5B6" d="M47.513,8.766H14.686c-2.259,0-4.104,1.849-4.104,4.104v32.826c0,2.26,1.846,4.105,4.104,4.105H47.51
		c2.257,0,4.104-1.849,4.104-4.105h0.001V12.869C51.614,10.611,49.768,8.766,47.513,8.766z M31.097,21.076
		c4.516,0,8.209,3.693,8.209,8.207c0,4.515-3.693,8.207-8.209,8.207c-4.514,0-8.207-3.693-8.207-8.207S26.583,21.076,31.097,21.076z
		 M47.51,44.669c0,0.616-0.411,1.026-1.025,1.026H15.711c-0.618,0-1.025-0.41-1.025-1.026V27.23h4.307
		c-0.205,0.615-0.205,1.436-0.205,2.053c0,6.77,5.54,12.309,12.31,12.309s12.309-5.539,12.309-12.309c0-0.615,0-1.436-0.204-2.052
		h4.309V44.669z M47.51,18c0,0.615-0.411,1.024-1.025,1.024h-4.106c-0.611,0-1.022-0.409-1.022-1.024v-4.104
		c0-0.616,0.411-1.027,1.022-1.027h4.106c0.614,0,1.025,0.411,1.025,1.027V18z"/>
</g>
</svg>
