<svg xmlns="http://www.w3.org/2000/svg" viewBox="0 0 300 240.15"><defs><style>.cls-1{fill:#dfdfdf;}.cls-10,.cls-11,.cls-2,.cls-3{fill:#fff;}.cls-3{stroke:#c8a062;stroke-miterlimit:10;stroke-width:2px;}.cls-4{fill:#231815;}.cls-5{fill:none;}.cls-6{fill:#999;}.cls-7{font-size:12px;}.cls-10,.cls-11,.cls-7,.cls-8{font-family:TsukuARdGothic-Regular-83pv-RKSJ-H, Tsukushi A Round Gothic;}.cls-8{font-size:10.47px;letter-spacing:0.04em;}.cls-9{letter-spacing:-0.02em;}.cls-10,.cls-11{font-size:10px;letter-spacing:-0.02em;}.cls-11{writing-mode:tb;text-orientation:upright;glyph-orientation-vertical:0deg;}</style></defs><title>map</title><g id="レイヤー_2" data-name="レイヤー 2"><g id="レイヤー_2-2" data-name="レイヤー 2"><rect class="cls-1" y="25.87" width="300" height="5"/><rect class="cls-1" width="300" height="10"/><rect class="cls-1" y="56.91" width="300" height="5"/><rect class="cls-1" y="122.5" width="300" height="5"/><rect class="cls-1" y="150.09" width="300" height="5"/><rect class="cls-1" y="200.51" width="300" height="15"/><rect class="cls-1" x="26.4" width="5" height="240"/><rect class="cls-1" x="149.74" width="10" height="240"/><rect class="cls-1" x="255.03" y="51.91" width="5" height="188.09"/><rect class="cls-1" x="193.26" y="56.91" width="5" height="183.09"/><rect class="cls-1" x="129.58" y="200.51" width="5" height="39.49"/><rect class="cls-1" x="272.16" width="5" height="30.87"/><rect class="cls-2" y="38.89" width="300" height="10"/><rect class="cls-3" x="32.44" y="156.03" width="64.3" height="43.49"/><g id="レイヤー_2-3" data-name="レイヤー 2"><g id="圖層_1" data-name="圖層 1"><path class="cls-4" d="M51.49,192.49h0l.15-.21a1.44,1.44,0,0,1,.2-.2,1.15,1.15,0,0,1,.24-.15.65.65,0,0,1,.76.16.65.65,0,0,1,.12.22.82.82,0,0,1,0,.26,1.16,1.16,0,0,1-.08.41,1.76,1.76,0,0,1-.21.39,2.32,2.32,0,0,1-.3.34,2.21,2.21,0,0,1-.35.27,1.89,1.89,0,0,1-.36.18,1,1,0,0,1-.34.06.68.68,0,0,1-.21,0,.58.58,0,0,1-.19-.11.57.57,0,0,1-.15-.19.62.62,0,0,1-.06-.28,1,1,0,0,1,0-.24,1.82,1.82,0,0,1,.08-.24l1-2.85h-.46l0-.07h.83Zm-.09,1.69a.61.61,0,0,0,.31-.09,1.33,1.33,0,0,0,.3-.25,2.48,2.48,0,0,0,.27-.35,3,3,0,0,0,.22-.41,2.76,2.76,0,0,0,.14-.42,1.53,1.53,0,0,0,.05-.37.31.31,0,0,0-.09-.24.37.37,0,0,0-.25-.08.57.57,0,0,0-.3.09,1.4,1.4,0,0,0-.29.24,2.3,2.3,0,0,0-.27.34,2.91,2.91,0,0,0-.22.4,2.87,2.87,0,0,0-.15.41,1.5,1.5,0,0,0-.05.38Q51.08,194.17,51.4,194.17Z"/><path class="cls-4" d="M54,192.3l.08-.28h-.45l0-.07h.8l-.08.28q0,.17-.11.32h0l.13-.19a1.8,1.8,0,0,1,.18-.21,1,1,0,0,1,.22-.17.49.49,0,0,1,.25-.07.38.38,0,0,1,.29.11.32.32,0,0,1,.1.23.3.3,0,0,1,0,.14.22.22,0,0,1-.07.08l-.09,0h-.09a.19.19,0,0,1-.12,0,.13.13,0,0,1,0-.11.13.13,0,0,1,0-.09l0-.05,0-.06a.14.14,0,0,0,0-.08.1.1,0,0,0,0-.08.17.17,0,0,0-.1,0,.39.39,0,0,0-.23.1,1.59,1.59,0,0,0-.26.26,2.81,2.81,0,0,0-.43.77l-.37,1.06H53.4l.56-1.6Z"/><path class="cls-4" d="M57.3,193.78a.86.86,0,0,0,0,.22q0,.14.13.14a.31.31,0,0,0,.19-.06.71.71,0,0,0,.14-.14.94.94,0,0,0,.1-.15l.05-.11.07,0-.08.15a.81.81,0,0,1-.14.17.88.88,0,0,1-.19.14.52.52,0,0,1-.25.06q-.34,0-.34-.31a.89.89,0,0,1,0-.13,1,1,0,0,1,0-.16h0l-.17.19a1.52,1.52,0,0,1-.21.2,1.15,1.15,0,0,1-.26.15.79.79,0,0,1-.31.06.58.58,0,0,1-.21,0,.49.49,0,0,1-.18-.12.56.56,0,0,1-.12-.21.89.89,0,0,1,0-.3,1.11,1.11,0,0,1,.08-.42,2,2,0,0,1,.22-.4,2.17,2.17,0,0,1,.31-.35,2.86,2.86,0,0,1,.35-.28,1.84,1.84,0,0,1,.35-.19.87.87,0,0,1,.31-.07.41.41,0,0,1,.27.09.29.29,0,0,1,.11.23h0l.09-.25h.36l-.57,1.58Q57.33,193.66,57.3,193.78Zm.12-1.39a.5.5,0,0,0,0-.12.44.44,0,0,0,0-.1.28.28,0,0,0,0-.1.28.28,0,0,0-.24-.11.66.66,0,0,0-.34.1,1.34,1.34,0,0,0-.31.25,2.17,2.17,0,0,0-.26.36,3.18,3.18,0,0,0-.21.41,2.68,2.68,0,0,0-.13.4,1.45,1.45,0,0,0,0,.34.5.5,0,0,0,.06.27.23.23,0,0,0,.22.1.59.59,0,0,0,.31-.09,1.48,1.48,0,0,0,.29-.22,2.13,2.13,0,0,0,.22-.26.92.92,0,0,0,.12-.2l.28-.77q.06-.17.08-.24Z"/><path class="cls-4" d="M58.54,192l0-.07h.82l-.21.64h0q.5-.67,1-.67a.49.49,0,0,1,.35.12.38.38,0,0,1,.13.29.55.55,0,0,1,0,.17l-.07.21-.34,1-.06.17a.58.58,0,0,0,0,.17.25.25,0,0,0,0,.11.11.11,0,0,0,.11.05.3.3,0,0,0,.17-.05.74.74,0,0,0,.14-.12.94.94,0,0,0,.11-.15l.07-.14.06,0-.07.14a.88.88,0,0,1-.12.17.7.7,0,0,1-.18.14.53.53,0,0,1-.26.06.51.51,0,0,1-.28-.07.26.26,0,0,1-.11-.24.58.58,0,0,1,0-.14l0-.16.44-1.24a.69.69,0,0,0,0-.21.22.22,0,0,0,0-.13.18.18,0,0,0-.16-.06.55.55,0,0,0-.27.09,1.48,1.48,0,0,0-.3.23,2.15,2.15,0,0,0-.28.35,2,2,0,0,0-.22.43l-.39,1.09h-.36L59,192Z"/><path class="cls-4" d="M62.88,193.78a.86.86,0,0,0,0,.22q0,.14.13.14a.31.31,0,0,0,.19-.06.71.71,0,0,0,.14-.14.94.94,0,0,0,.1-.15l.05-.11.07,0-.08.15a.81.81,0,0,1-.14.17.88.88,0,0,1-.19.14.52.52,0,0,1-.25.06q-.34,0-.34-.31a.89.89,0,0,1,0-.13,1,1,0,0,1,0-.16h0l-.17.19a1.52,1.52,0,0,1-.21.2,1.15,1.15,0,0,1-.26.15.79.79,0,0,1-.31.06.58.58,0,0,1-.21,0,.49.49,0,0,1-.18-.12.56.56,0,0,1-.12-.21.89.89,0,0,1,0-.3,1.11,1.11,0,0,1,.08-.42,2,2,0,0,1,.22-.4,2.17,2.17,0,0,1,.31-.35,2.86,2.86,0,0,1,.35-.28,1.84,1.84,0,0,1,.35-.19.87.87,0,0,1,.31-.07A.41.41,0,0,1,63,192a.29.29,0,0,1,.11.23h0l.68-1.9H63.3l0-.07h.83L63,193.52Zm.12-1.39a.5.5,0,0,0,0-.12.44.44,0,0,0,0-.1.28.28,0,0,0,0-.1.28.28,0,0,0-.24-.11.66.66,0,0,0-.34.1,1.34,1.34,0,0,0-.31.25,2.17,2.17,0,0,0-.26.36,3.18,3.18,0,0,0-.21.41,2.68,2.68,0,0,0-.13.4,1.45,1.45,0,0,0,0,.34.5.5,0,0,0,.06.27.23.23,0,0,0,.22.1.59.59,0,0,0,.31-.09,1.48,1.48,0,0,0,.29-.22,2.13,2.13,0,0,0,.22-.26.92.92,0,0,0,.12-.2l.28-.77q.06-.17.08-.24Z"/><path class="cls-4" d="M65.79,192.3l.08-.28h-.45l0-.07h.8l-.08.28q0,.17-.11.32h0l.13-.19a1.8,1.8,0,0,1,.18-.21,1,1,0,0,1,.22-.17.49.49,0,0,1,.25-.07.38.38,0,0,1,.29.11.32.32,0,0,1,.1.23.3.3,0,0,1,0,.14.22.22,0,0,1-.07.08l-.09,0H67a.19.19,0,0,1-.12,0,.13.13,0,0,1,0-.11.13.13,0,0,1,0-.09l0-.05,0-.06a.14.14,0,0,0,0-.08.1.1,0,0,0,0-.08.17.17,0,0,0-.1,0,.39.39,0,0,0-.23.1,1.59,1.59,0,0,0-.26.26,2.81,2.81,0,0,0-.43.77l-.37,1.06h-.36l.56-1.6Z"/><path class="cls-4" d="M68.88,193.8a1,1,0,0,1-.17.19,1.15,1.15,0,0,1-.27.17.89.89,0,0,1-.38.08.88.88,0,0,1-.38-.07.73.73,0,0,1-.25-.19.74.74,0,0,1-.14-.25.87.87,0,0,1,0-.27,1.29,1.29,0,0,1,.13-.54,2,2,0,0,1,.33-.51,1.88,1.88,0,0,1,.47-.38,1,1,0,0,1,.53-.15l.21,0a.69.69,0,0,1,.19.07.41.41,0,0,1,.14.12.3.3,0,0,1,.05.18.42.42,0,0,1-.08.25.68.68,0,0,1-.19.18,1.36,1.36,0,0,1-.26.13l-.28.08-.25,0h-.34l-.15,0q-.06.17-.1.33a1.49,1.49,0,0,0,0,.35.56.56,0,0,0,.15.42.52.52,0,0,0,.37.14.64.64,0,0,0,.29-.06,1,1,0,0,0,.22-.15,1.17,1.17,0,0,0,.16-.18l.11-.14.06,0Zm0-1.78a.26.26,0,0,0-.21-.07.57.57,0,0,0-.31.09,1.21,1.21,0,0,0-.27.23,1.75,1.75,0,0,0-.21.3,1.86,1.86,0,0,0-.14.29l.27,0a1.08,1.08,0,0,0,.35-.06,1.09,1.09,0,0,0,.29-.15.76.76,0,0,0,.2-.22.5.5,0,0,0,.08-.26.26.26,0,0,0-.06-.18Z"/><path class="cls-4" d="M70.53,191.95l-.6,1.72a1.62,1.62,0,0,0-.06.19.6.6,0,0,0,0,.13.23.23,0,0,0,0,.13.15.15,0,0,0,.13.06.57.57,0,0,0,.3-.11,1.75,1.75,0,0,0,.32-.27,2.48,2.48,0,0,0,.29-.37,2.09,2.09,0,0,0,.2-.41l.37-1.07h.36l-.61,1.76-.05.16a.5.5,0,0,0,0,.15.16.16,0,0,0,0,.11.13.13,0,0,0,.11,0,.29.29,0,0,0,.17-.06.81.81,0,0,0,.15-.13l.11-.15.07-.12.06,0-.06.13a.81.81,0,0,1-.12.17.73.73,0,0,1-.19.15.56.56,0,0,1-.27.06.47.47,0,0,1-.27-.07.27.27,0,0,1-.1-.24.67.67,0,0,1,0-.17,1.54,1.54,0,0,1,.06-.18h0l-.17.21a2.17,2.17,0,0,1-.22.22,1.33,1.33,0,0,1-.25.17.58.58,0,0,1-.27.07.55.55,0,0,1-.35-.1.36.36,0,0,1-.13-.3.58.58,0,0,1,0-.18l.06-.19.51-1.44h-.46l0-.07Z"/><path class="cls-4" d="M72.55,192.82a.44.44,0,0,1-.06-.24.54.54,0,0,1,.06-.24.79.79,0,0,1,.17-.23.86.86,0,0,1,.26-.16.87.87,0,0,1,.33-.06.58.58,0,0,1,.35.1.29.29,0,0,1,.13.25.19.19,0,0,1-.21.22.2.2,0,0,1-.13,0,.14.14,0,0,1-.05-.12.15.15,0,0,1,0-.11.12.12,0,0,0,0-.09q0-.14-.18-.14a.58.58,0,0,0-.22,0,.42.42,0,0,0-.15.1.4.4,0,0,0-.09.14.45.45,0,0,0,0,.16.39.39,0,0,0,.05.19l.15.22.31.4a.45.45,0,0,1,.09.16.66.66,0,0,1,0,.17.55.55,0,0,1-.09.31.79.79,0,0,1-.22.22,1,1,0,0,1-.29.13,1,1,0,0,1-.29,0l-.23,0a.73.73,0,0,1-.19-.08A.42.42,0,0,1,72,194a.3.3,0,0,1-.05-.17.22.22,0,0,1,.08-.18.3.3,0,0,1,.19-.06.13.13,0,0,1,.09,0,.1.1,0,0,1,0,.08.27.27,0,0,1,0,.12.27.27,0,0,0,0,.12.19.19,0,0,0,.08.17.4.4,0,0,0,.21,0,.61.61,0,0,0,.23,0A.6.6,0,0,0,73,194a.43.43,0,0,0,.11-.14.35.35,0,0,0,0-.15.49.49,0,0,0,0-.19.87.87,0,0,0-.11-.19l-.26-.34Z"/><path class="cls-4" d="M75.62,193.8a1,1,0,0,1-.17.19,1.15,1.15,0,0,1-.27.17.89.89,0,0,1-.38.08.88.88,0,0,1-.38-.07.73.73,0,0,1-.25-.19.74.74,0,0,1-.14-.25.87.87,0,0,1,0-.27,1.29,1.29,0,0,1,.13-.54,2,2,0,0,1,.33-.51,1.88,1.88,0,0,1,.47-.38,1,1,0,0,1,.53-.15l.21,0a.69.69,0,0,1,.19.07.41.41,0,0,1,.14.12.3.3,0,0,1,.05.18.42.42,0,0,1-.08.25.68.68,0,0,1-.19.18,1.36,1.36,0,0,1-.26.13l-.28.08-.25,0h-.34l-.15,0q-.06.17-.1.33a1.49,1.49,0,0,0,0,.35.56.56,0,0,0,.15.42.52.52,0,0,0,.37.14.64.64,0,0,0,.29-.06,1,1,0,0,0,.22-.15,1.17,1.17,0,0,0,.16-.18l.11-.14.06,0Zm0-1.78a.26.26,0,0,0-.21-.07.57.57,0,0,0-.31.09,1.21,1.21,0,0,0-.27.23,1.75,1.75,0,0,0-.21.3,1.86,1.86,0,0,0-.14.29l.27,0a1.08,1.08,0,0,0,.35-.06,1.09,1.09,0,0,0,.29-.15.76.76,0,0,0,.2-.22.5.5,0,0,0,.08-.26.26.26,0,0,0-.06-.18Z"/><path class="cls-4" d="M46.08,180.17l.18,2.12h-.18a3.52,3.52,0,0,0-.47-1,2.19,2.19,0,0,0-.69-.66,1.59,1.59,0,0,0-.82-.23,1.17,1.17,0,0,0-.59.14.88.88,0,0,0-.37.39,1.83,1.83,0,0,0-.11.75v4.56a2.91,2.91,0,0,0,.07.74.89.89,0,0,0,.26.41,1.86,1.86,0,0,0,1,.41V188h-4v-.18a1.77,1.77,0,0,0,1.08-.47.88.88,0,0,0,.21-.41,3.19,3.19,0,0,0,.06-.69v-4.55a1.66,1.66,0,0,0-.15-.82.84.84,0,0,0-.36-.33,1.2,1.2,0,0,0-.55-.12,1.67,1.67,0,0,0-1.18.51,3.13,3.13,0,0,0-.8,1.4H38.5l.18-2.12Zm-7.22.21-.08.84a3.54,3.54,0,0,1,.42-.53,2,2,0,0,1,.45-.31Zm2.53,7.29h1.67l-.22-.17a1.17,1.17,0,0,1-.26-.23.48.48,0,0,1-.05-.25v-.19a.45.45,0,0,0,0-.06.2.2,0,0,1,0,0V181.4a.2.2,0,0,1,0,0,.45.45,0,0,0,0-.06v-.19a.48.48,0,0,1,.06-.27.94.94,0,0,1,.25-.22l.33-.24H41.42l.27.24a.8.8,0,0,1,.19.23.58.58,0,0,1,.05.25v.19a.89.89,0,0,1,0,.1v5.34a.88.88,0,0,1,0,.1V187a.49.49,0,0,1-.05.26,1,1,0,0,1-.25.23Zm4.25-7.29h-.83a2.13,2.13,0,0,1,.51.29,2.36,2.36,0,0,1,.43.47Z"/><path class="cls-4" d="M46.72,184.08a4,4,0,0,1,.32-1.58,4.13,4.13,0,0,1,.89-1.32A4.06,4.06,0,0,1,50.81,180a4,4,0,0,1,2,.55,4.1,4.1,0,0,1,1.73,5.11A4.05,4.05,0,0,1,53.7,187a4.16,4.16,0,0,1-1.31.89,3.93,3.93,0,0,1-1.57.32,4.1,4.1,0,0,1-3.56-2A4,4,0,0,1,46.72,184.08Zm2.37,3.51a3.45,3.45,0,0,1-.84-.89,3.85,3.85,0,0,1-.5-1.18,6.09,6.09,0,0,1-.17-1.48,5.08,5.08,0,0,1,.36-2,3.54,3.54,0,0,1,1.15-1.43,4.22,4.22,0,0,0-1.16.89,3.77,3.77,0,0,0-.74,1.19,4,4,0,0,0,0,2.81,3.82,3.82,0,0,0,.74,1.2,4.34,4.34,0,0,0,1.16.91ZM48.16,184a6.1,6.1,0,0,0,.19,1.56,3.83,3.83,0,0,0,.54,1.22,2.45,2.45,0,0,0,.84.77,2.25,2.25,0,0,0,1.09.27,2.28,2.28,0,0,0,1.71-.78,3.23,3.23,0,0,0,.69-1.26,6,6,0,0,0,.24-1.79,6.26,6.26,0,0,0-.19-1.59,3.76,3.76,0,0,0-.53-1.2,2.45,2.45,0,0,0-.83-.76,2.24,2.24,0,0,0-1.1-.27,2.21,2.21,0,0,0-1.09.27,2.47,2.47,0,0,0-.84.78,3.87,3.87,0,0,0-.54,1.22A6.13,6.13,0,0,0,48.16,184Zm4.06,3.56a3.84,3.84,0,0,0,2.09-3.52,4.35,4.35,0,0,0-.23-1.42,3.93,3.93,0,0,0-.66-1.2,3.34,3.34,0,0,0-1-.84A4.31,4.31,0,0,1,53.68,184a6.67,6.67,0,0,1-.12,1.3,4.7,4.7,0,0,1-.34,1.08,2.85,2.85,0,0,1-.23.42,2.75,2.75,0,0,1-.31.37A5.43,5.43,0,0,1,52.22,187.59Z"/><path class="cls-4" d="M57.49,183.73V186a3.2,3.2,0,0,0,.06.71,1,1,0,0,0,.23.42,1.5,1.5,0,0,0,.88.4v.17H55.1v-.17a1.31,1.31,0,0,0,.88-.46,1.85,1.85,0,0,0,.21-1.07v-4.21a3.44,3.44,0,0,0-.06-.74.86.86,0,0,0-.21-.39,1.44,1.44,0,0,0-.83-.4v-.17h.14l.49,0,.69,0q.62,0,1.12-.05l.78-.07q.37,0,.73,0a4.73,4.73,0,0,1,1.18.13,2.72,2.72,0,0,1,.88.39,1.77,1.77,0,0,1,.55.62,1.71,1.71,0,0,1,.19.82,1.43,1.43,0,0,1-.52,1.17,2.69,2.69,0,0,1-1.53.49,3.1,3.1,0,0,1,1.06.67,7.83,7.83,0,0,1,1,1.39A11.05,11.05,0,0,0,63,187.2a2.27,2.27,0,0,0,.87.6V188a5,5,0,0,1-1-.11,3,3,0,0,1-.85-.36,4.27,4.27,0,0,1-1-.89,6.22,6.22,0,0,1-.82-1.28l-.3-.62a3.43,3.43,0,0,0-.37-.63.82.82,0,0,0-.39-.27,2,2,0,0,0-.61-.07Zm-1.6,3.71h1.63l-.22-.16a1,1,0,0,1-.24-.22.48.48,0,0,1-.05-.25q0-.09,0-.12s0,0,0-.06v-5.41a.51.51,0,0,1,0-.07,1.17,1.17,0,0,0,0-.12.49.49,0,0,1,0-.24.8.8,0,0,1,.21-.21l0,0,.31-.24h-.2l-.92,0-.69,0,.3.21a.81.81,0,0,1,.24.22.5.5,0,0,1,.06.26q0,.1,0,.18v5.41q0,.09,0,.18a.5.5,0,0,1-.05.25,1,1,0,0,1-.25.22Zm1.6-3.94h1a2.92,2.92,0,0,0,1.24-.19,1.22,1.22,0,0,0,.53-.54,1.77,1.77,0,0,0,.19-.84,1.73,1.73,0,0,0-.23-.88,1.56,1.56,0,0,0-.63-.61,1.94,1.94,0,0,0-.92-.22,1.08,1.08,0,0,0-1,.48,1.86,1.86,0,0,0-.15.86Zm5.7,4.23a4.52,4.52,0,0,1-.48-.3,4,4,0,0,1-.43-.37,5.83,5.83,0,0,1-.45-.54q-.16-.23-.54-.85a9.69,9.69,0,0,0-.64-1,3.31,3.31,0,0,0-.58-.59,2.8,2.8,0,0,0-.64-.37,3,3,0,0,1,.37.45q.08.12.28.52l.12.23.11.23a6,6,0,0,0,1.28,1.77A3.35,3.35,0,0,0,63.19,187.73Zm-3.52-4.2a2.93,2.93,0,0,0,.68-.24,2,2,0,0,0,.51-.36,1.43,1.43,0,0,0,.31-.46,1.36,1.36,0,0,0,.11-.54,1.48,1.48,0,0,0-.44-1.06,2.06,2.06,0,0,0-1.15-.58,2,2,0,0,1,.54.41,1.65,1.65,0,0,1,.33.54,1.89,1.89,0,0,1,.11.66,1.87,1.87,0,0,1-.24,1,1.66,1.66,0,0,1-.77.62Z"/><path class="cls-4" d="M68.93,185.08H66l-.32.73a2.37,2.37,0,0,0-.23.88.94.94,0,0,0,.13.51,1,1,0,0,0,.4.35,2.61,2.61,0,0,0,.7.23V188h-3v-.17a2.06,2.06,0,0,0,.92-.64,6.12,6.12,0,0,0,.81-1.42L68,180h.15l2.75,6.17,0,0,0,.05,0,.06.25.52a1.82,1.82,0,0,0,.47.63,1.56,1.56,0,0,0,.66.3V188H68.67v-.18a2.67,2.67,0,0,0,.66-.11.55.55,0,0,0,.41-.54,1.85,1.85,0,0,0-.18-.62Zm-3.36,2.59a1.8,1.8,0,0,1-.27-.42,1,1,0,0,1-.08-.4q0-.1,0-.15a3.16,3.16,0,0,1-.35.55,2.63,2.63,0,0,1-.46.43Zm3.25-2.83-1.38-3.1-1.35,3.1Zm-1.26-3.35,2.2,4.95.06.13a1.56,1.56,0,0,1,.18.56.84.84,0,0,1-.28.54h1.51a2.57,2.57,0,0,1-.45-.55,8.57,8.57,0,0,1-.44-.86l-2.45-5.51Z"/><path class="cls-4" d="M77.51,187.61h-.14l-3.12-6.21-.34,3.86q0,.32,0,.61a2.1,2.1,0,0,0,.34,1.28,1.82,1.82,0,0,0,1.1.62V188H72.21v-.18a2.09,2.09,0,0,0,.74-.45,2.06,2.06,0,0,0,.49-.7,5.12,5.12,0,0,0,.27-1.4l.36-4.12a1.51,1.51,0,0,0-.5-.58,1.41,1.41,0,0,0-.71-.19v-.18h2.76l0,.07a1.16,1.16,0,0,0-.11.41,2.24,2.24,0,0,0,.29.86L78,185.9l1.83-4.26a2.24,2.24,0,0,0,.22-.78,1.46,1.46,0,0,0-.23-.68h2.75v.18a1.44,1.44,0,0,0-.83.33,1,1,0,0,0-.26.74,2.35,2.35,0,0,0,0,.29l0,.14.48,4.24,0,.15.05.36a1.51,1.51,0,0,0,.34.82,1.37,1.37,0,0,0,.78.36V188H79.54v-.18a2.16,2.16,0,0,0,.88-.39.77.77,0,0,0,.28-.61,4.39,4.39,0,0,0,0-.47l-.56-4.88Zm-3.35.06a2.5,2.5,0,0,1-.37-.49,1.68,1.68,0,0,1-.15-.49,2.14,2.14,0,0,1-.3.55,2.45,2.45,0,0,1-.47.43Zm3.26-.39.31-.74-2.63-5.23a1.61,1.61,0,0,1-.19-.59.67.67,0,0,1,.09-.34H73.69a1.75,1.75,0,0,1,.48.48,5.37,5.37,0,0,1,.37.65Zm2.93.39H82.1l-.3-.24a1,1,0,0,1-.26-.67l-.63-5.45q0-.15,0-.21a.43.43,0,0,1,.06-.23,1.05,1.05,0,0,1,.23-.24l.33-.26H80.2l.72,6.3,0,.13q0,.14,0,.21a.39.39,0,0,1-.05.22,1.09,1.09,0,0,1-.24.22Z"/><path class="cls-4" d="M83.91,188v-.18a1.34,1.34,0,0,0,.9-.47,1.89,1.89,0,0,0,.22-1.09v-4.31a3.52,3.52,0,0,0-.06-.75.88.88,0,0,0-.21-.4,1.39,1.39,0,0,0-.84-.41v-.18h3.56v.18a1.37,1.37,0,0,0-.9.47,1,1,0,0,0-.17.4,3.61,3.61,0,0,0-.05.69v4.31a3.34,3.34,0,0,0,.06.73,1,1,0,0,0,.21.42,1.39,1.39,0,0,0,.84.41V188Zm.8-.29h1.67l-.22-.17a1,1,0,0,1-.25-.23.49.49,0,0,1-.05-.26q0-.09,0-.12s0,0,0-.06V181.3a.54.54,0,0,1,0-.07s0-.06,0-.12a.49.49,0,0,1,.05-.26,1,1,0,0,1,.25-.23l.33-.24H84.61l.33.24a1,1,0,0,1,.25.22.51.51,0,0,1,.05.26q0,.1,0,.19v5.53q0,.09,0,.19a.5.5,0,0,1-.05.26,1,1,0,0,1-.25.23Z"/><polygon points="46.47 193.28 48.71 192.93 46.48 192.59 33.4 192.93 46.47 193.28 46.47 193.28"/><polygon points="78.43 192.93 80.67 193.28 93.74 192.93 80.66 192.59 78.43 192.93 78.43 192.93"/><path d="M65.83,174.45a.2.2,0,0,1-.16-.08,3.21,3.21,0,0,1,1.06-4.74.2.2,0,0,1,.19.35h0a2.81,2.81,0,0,0-.93,4.15.2.2,0,0,1-.16.32Z"/><path d="M67,175.4l-.08,0a3.21,3.21,0,0,1-.81-.53.2.2,0,0,1,.27-.3,2.81,2.81,0,0,0,.71.47.2.2,0,0,1-.08.38Z"/><path class="cls-5" d="M69.21,168.71a3.93,3.93,0,0,0-1.46-.08,3.86,3.86,0,1,0,1.46.08Z"/><path class="cls-4" d="M54.24,170.35l.19.08v0h-.11l-.09,0a.15.15,0,0,0-.06.06.11.11,0,0,0,0,.06.09.09,0,0,0,0,0l.06,0,.4.2.07,0h0a.18.18,0,0,0,.08-.07h0l-.17.35h0a.17.17,0,0,0,0-.12l0,0-.06,0-.4-.2-.08,0,0,0,0,0a.16.16,0,0,0,0,.13.3.3,0,0,0,.09.13v0l-.18-.11Zm-.29.64.07,0,0-.06a.2.2,0,0,1,0-.05Zm.75.09.07-.15h-.11l-.47-.23h0l0,0v-.07l-.08.15h.11l.47.23h0l0,0v.06Zm-.46-.69,0,.07,0,0,.06,0Z"/><path class="cls-4" d="M54.62,170.44a.39.39,0,0,1-.11-.11.4.4,0,0,1-.06-.14.4.4,0,0,1,.06-.3.39.39,0,0,1,.15-.14.4.4,0,0,1,.51.13.4.4,0,0,1,.06.14.41.41,0,0,1,0,.15.38.38,0,0,1-.06.15.4.4,0,0,1-.36.18A.39.39,0,0,1,54.62,170.44Zm.41,0-.12,0-.12,0-.13-.06a.5.5,0,0,1-.15-.14.35.35,0,0,1-.06-.17.41.41,0,0,0,0,.14.37.37,0,0,0,.06.12.38.38,0,0,0,.1.1l.13.05h.14Zm-.34-.11.14.07.13,0,.11,0a.22.22,0,0,0,.08-.08.22.22,0,0,0,0-.18.31.31,0,0,0-.07-.12.59.59,0,0,0-.13-.12l-.14-.07-.13,0-.11,0a.22.22,0,0,0-.08.08.22.22,0,0,0,0,.1.24.24,0,0,0,0,.11.38.38,0,0,0,.07.11l.12.1Zm.51-.14a.38.38,0,0,0-.18-.36l-.13-.06h-.13l-.12,0a.42.42,0,0,1,.35.08l.1.08.07.09,0,0v.1Z"/><path class="cls-4" d="M55.25,169.5l.17.15.06,0h0a.15.15,0,0,0,.09,0h0l-.23.27h0a.13.13,0,0,0,0-.1.19.19,0,0,0-.07-.09l-.32-.27-.06,0h0a.14.14,0,0,0-.08,0h0l0,0,0-.05.07-.09,0-.06,0-.06.09-.08.09,0h.08l.07,0a.14.14,0,0,1,.06.12.27.27,0,0,1-.06.15l.12,0h.17l.18,0,.1,0h0l-.08.07-.08,0-.13,0-.15,0-.06,0h-.12l0,0Zm.18.36.11-.12h-.1l-.4-.34h0l0,0a.08.08,0,0,1,0,0h0v0l-.06.07,0,.05H55l.4.34h0l0,0a.1.1,0,0,1,0,0Zm-.19-.38.06-.08a.29.29,0,0,0,.06-.11.12.12,0,0,0,0-.08.18.18,0,0,0-.05-.07l-.08,0h-.09l-.08.06a.11.11,0,0,0,0,.11.19.19,0,0,0,.06.07Zm.14-.16,0-.07a.2.2,0,0,0,0-.06.14.14,0,0,0,0-.05l0,0a.15.15,0,0,0-.11,0,.2.2,0,0,0-.12,0h.13a.21.21,0,0,1,.12.12A.17.17,0,0,1,55.38,169.32Zm.55,0-.05,0h-.42l-.07,0h.17a.6.6,0,0,0,.22,0,.33.33,0,0,0,.16-.07Z"/><path class="cls-4" d="M56.15,168.74l-.22.19,0,.07a.23.23,0,0,0,0,.08l0,0h.05l.06,0h0l-.22.19h0a.2.2,0,0,0,0-.11.6.6,0,0,0,0-.16l-.18-.58h0l.6.28h0l.05,0,.07,0,.07,0h0l-.27.23h0l0-.05a.05.05,0,0,0,0-.06l-.05,0Zm-.33-.18.48.22h0l0,0a.08.08,0,0,1,0,.06l.11-.1h-.07l-.09,0-.53-.25Zm.31.16-.3-.14.1.31Zm-.06.42h0l0,0h0a.31.31,0,0,1,0,.06.26.26,0,0,1,0,.06Z"/><path class="cls-4" d="M57,168.42h0l-.58-.35.17.34,0,.05a.2.2,0,0,0,.09.09.18.18,0,0,0,.12,0h0l-.26.16h0a.2.2,0,0,0,0-.07.2.2,0,0,0,0-.08.5.5,0,0,0,0-.13l-.18-.36-.07,0-.07,0h0l.23-.14h0v0l.07.06.41.25-.07-.45a.22.22,0,0,0,0-.08l-.05,0,.23-.14h0a.14.14,0,0,0-.05.07.1.1,0,0,0,0,.08l0,0h0l.26.33h0l0,0a.15.15,0,0,0,.07.05h.09l-.3.19h0a.21.21,0,0,0,.05-.08.08.08,0,0,0,0-.06l0,0-.3-.38Zm0,0v-.08l-.49-.3,0,0a.06.06,0,0,1,0,0l-.11.07.06,0,.06,0Zm-.25.2-.06,0,0,0a.21.21,0,0,1,0,.06.24.24,0,0,1,0,.06Zm.51-.32.15-.09h0a.1.1,0,0,1-.06,0l-.33-.42v-.11l-.11.07.38.48h0v.1Z"/><path class="cls-4" d="M57.53,168.17v0a.13.13,0,0,0,.06-.08.18.18,0,0,0,0-.11l-.18-.38,0-.06,0,0a.14.14,0,0,0-.09,0v0l.32-.15v0a.13.13,0,0,0-.06.08.1.1,0,0,0,0,0l0,.06.18.38,0,.06,0,0a.14.14,0,0,0,.09,0v0Zm.06-.06.15-.07h-.06l0,0h0l-.22-.47h0a0,0,0,0,1,0,0v0l0,0-.16.08h.07l0,0v0h0l.22.47h0v.1Z"/><path class="cls-4" d="M58.44,167.57v0l-.11,0v0Z"/><path class="cls-4" d="M58.76,167.39h0v0l0,0,0,0,0,0a.08.08,0,0,1,.07,0l0,0,0,0a.15.15,0,0,1,0,.05.23.23,0,0,1,0,.06l0,.05,0,0,0,0,0,0h-.06l0,0,0,0v0a.23.23,0,0,1,0,0v-.4l-.06,0h0l.1,0Zm.06.22,0,0,0,0,0-.06v-.06a.37.37,0,0,0,0-.06.2.2,0,0,0,0,0l0,0h0l0,0,0,0,0,.05v.06a.39.39,0,0,0,0,.06.2.2,0,0,0,0,.05S58.79,167.61,58.82,167.6Z"/><path class="cls-4" d="M59.08,167.26v0l-.06,0h0l.1,0s0,0,0,0a.43.43,0,0,1,0,0h0v0l0,0,0,0,0,0h0l0,0a0,0,0,0,1,0,0H59.2l0,0,0,0,0,.05a.35.35,0,0,0,0,.06v.15h0l0-.22Z"/><path class="cls-4" d="M59.55,167.35a.11.11,0,0,0,0,0h0v-.06h0v0l0,0,0,0s0,0-.05,0v0a.13.13,0,0,1,0,0h0l0,0,0,0,0,0,0,0h-.05l0,0v0a.15.15,0,0,1,0-.06l0-.06,0-.05,0,0,0,0,0,0h0l0,0h0v0h0l0,.22Zm0-.18a.06.06,0,0,0,0,0h0l0,0,0,0,0,.05v.06a.36.36,0,0,0,0,.05.19.19,0,0,0,0,0l0,0h0l0,0,0,0,0,0v-.14a.3.3,0,0,1,0,0Z"/><path class="cls-4" d="M59.66,167.09h0l.11,0v.09h0q.05-.1.11-.11h0a0,0,0,0,1,0,0,.07.07,0,0,1,0,0v0l0,.13v0a.07.07,0,0,0,0,0h0l0,0v0h0v0l0,0h-.07a0,0,0,0,1,0,0,.08.08,0,0,1,0,0,.07.07,0,0,1,0,0l0-.17a.09.09,0,0,0,0,0v0h0l0,0,0,0,0,.05,0,.06,0,.15h0l.05-.3Z"/><path class="cls-4" d="M60.27,167.23a.12.12,0,0,0,0,0v0h0l0,0v0h0v0l0,0,0,0h0s0,0,0,0a.11.11,0,0,1,0,0v0h0l0,0,0,0,0,0h-.09l0,0v0a.15.15,0,0,1,0-.06l0-.06,0-.05,0,0,0,0h.08a0,0,0,0,1,0,0h0l.06-.26h.05l-.11.45Zm0-.18a.06.06,0,0,0,0,0h0l0,0h0l0,0,0,0,0,.05,0,.06v.05a.19.19,0,0,0,0,0,.07.07,0,0,0,0,0h0l0,0,0,0,0,0v0l0-.1Z"/><path class="cls-4" d="M60.64,167v0h0V167h0l0,0,0,0,0,0h.07a0,0,0,0,1,0,0v0h-.09l0,0a.37.37,0,0,0-.05.1l0,.14h0l.07-.21Z"/><path class="cls-4" d="M61,167.21l0,0,0,0h-.1l0,0,0,0a.11.11,0,0,1,0,0,.17.17,0,0,1,0-.07l0-.07.06,0,.07,0h.05l0,0v0a.06.06,0,0,1,0,0l0,0,0,0H60.9v0a.2.2,0,0,0,0,0,.07.07,0,0,0,0,.06l0,0h0l0,0,0,0v0h0Zm0-.23H61l0,0,0,0,0,0h0l.09,0,0,0a.06.06,0,0,0,0,0Z"/><path class="cls-4" d="M61.28,167l-.09.22v.06h.06l0,0,0,0,0-.05.06-.14h0l-.1.23v0h0l0,0,0,0v0h0v0l0,0,0,0h-.07a0,0,0,0,1,0,0v0h0l0,0,0,0,0,0h0l0,0a0,0,0,0,1,0,0v0l.08-.18h.05Z"/><path class="cls-4" d="M61.54,167.11a.06.06,0,0,1,0,0v0l0,0a.11.11,0,0,1,.08,0l0,0a0,0,0,0,1,0,0,0,0,0,0,1,0,0h0v0h0s0,0,0,0H61.6v0a.05.05,0,0,0,0,0l0,0,0,.06v0a.09.09,0,0,1,0,0,.07.07,0,0,1,0,0l0,0h-.13l0,0a0,0,0,0,1,0,0v0h0a0,0,0,0,0,0,0h.08l0,0v0a.06.06,0,0,0,0,0v0l0,0Z"/><path class="cls-4" d="M61.92,167.29l0,0,0,0H61.8l0,0,0,0v0a.12.12,0,0,1,0,0,.17.17,0,0,1,0-.07l.05-.06.07,0H62l0,0a0,0,0,0,1,0,0v0l0,0h-.17l0,0v0a.07.07,0,0,0,0,.06l0,0h0l0,0,0,0,0,0h0Zm0-.23h-.07l0,0,0,0,0,0h.12l0,0,0,0a0,0,0,0,0,0,0Z"/><path class="cls-5" d="M69.21,168.71a3.93,3.93,0,0,0-1.46-.08,3.86,3.86,0,1,0,1.46.08Z"/><path d="M65.89,167.18a.49.49,0,1,0,.49.49h0A.49.49,0,0,0,65.89,167.18Zm0,.61a.12.12,0,1,1,.12-.12h0a.12.12,0,0,1-.12.13h0Z"/><path class="cls-5" d="M64.55,169.22A3.73,3.73,0,0,1,66,169a2.07,2.07,0,0,0,2-1.85v0c0-.28-.29-.38-.36-.4a27.6,27.6,0,0,0-6.68-.77c-3,0-6,.84-7.42,3.69a4.15,4.15,0,0,0,.39,4.59,4,4,0,0,0,.78.73,4.25,4.25,0,0,0,4,.46c2.53-.94,2.31-3.64,4.13-5.17a6.42,6.42,0,0,1,1-.7A3.48,3.48,0,0,1,64.55,169.22Z"/><path class="cls-5" d="M67.74,168.64a2.2,2.2,0,0,1-.36.34,2.38,2.38,0,0,1-1.44.46h-.06a3.94,3.94,0,0,0-.34.3,3.88,3.88,0,1,0,2.73-1.13,3.93,3.93,0,0,0-.53,0Z"/><path d="M73.18,170.47a5.3,5.3,0,0,0-2.91-2.91c-.37-.15-.86-.33-1.25-.44l-.62-.18a.49.49,0,0,0-.39-.52,28.1,28.1,0,0,0-4.15-.72c-1.13-.11-2-.14-2.59-.14H60.7a10.35,10.35,0,0,0-4.34.84,6.61,6.61,0,0,0-3.2,3.07,4.82,4.82,0,0,0-.55,2.4,4.42,4.42,0,0,0,1.1,2.75l-.44.86.15.13.15.13.76-.53a4.41,4.41,0,0,0,.51.34,4.51,4.51,0,0,0,2.23.58,5.12,5.12,0,0,0,1.78-.33,4,4,0,0,0,1.8-1.32,9.06,9.06,0,0,0,1-1.73,6.11,6.11,0,0,1,1.46-2.2l.36-.28-.08.19a5.29,5.29,0,1,0,9.8,0Zm-4.9-1.88a3.86,3.86,0,1,1-2.73,1.13,3.94,3.94,0,0,1,.34-.3h.06a2.39,2.39,0,0,0,1.44-.46,2.2,2.2,0,0,0,.36-.34h0a3.93,3.93,0,0,1,.53,0Zm-5.44,1.67c-1.82,1.54-1.59,4.24-4.13,5.17a4.25,4.25,0,0,1-4-.46,4,4,0,0,1-.78-.73,4.15,4.15,0,0,1-.39-4.59c1.45-2.85,4.37-3.74,7.42-3.69a27.57,27.57,0,0,1,6.68.77c.07,0,.39.12.36.4v0A2.07,2.07,0,0,1,66,169a3.74,3.74,0,0,0-1.44.19,3.48,3.48,0,0,0-.7.35A6.42,6.42,0,0,0,62.84,170.27Zm5.44,7A4.81,4.81,0,0,1,64,170.21a.19.19,0,1,1,.34.18h0a4.42,4.42,0,1,0,4.35-2.34.19.19,0,0,1,0-.39,4.81,4.81,0,0,1-.48,9.6Z"/></g></g><rect class="cls-2" x="244.77" y="30.87" width="55.23" height="26.04"/><rect class="cls-6" x="260.03" y="174.45" width="39.97" height="25.91"/><rect class="cls-6" x="213.27" y="174.95" width="41.76" height="25.41"/><rect class="cls-6" x="159.74" y="174.45" width="33.51" height="25.91"/><rect class="cls-6" x="87.47" y="215.51" width="42.03" height="24.49"/><text class="cls-7" transform="translate(248.53 48.58)">摂津本山</text><text class="cls-8" transform="translate(140.83 211.46)">2<tspan class="cls-9" x="6.48" y="0">号線</tspan></text><text class="cls-10" transform="translate(214.83 191)">タイヤ館</text><text class="cls-10" transform="translate(88.82 226.51)">三井住友<tspan x="9.8" y="11">銀行</tspan></text><text class="cls-10" transform="translate(265.03 188)">シャト<tspan x="0" y="8">レーゼ</tspan></text><rect class="cls-6" x="0.06" y="61.91" width="26.4" height="60.59"/><text class="cls-11" transform="translate(13.26 62.43)">本山南中学校</text><text class="cls-10" transform="translate(166.7 186.19)">三王<tspan x="0" y="11">神社</tspan></text></g></g></svg>