<svg xmlns="http://www.w3.org/2000/svg" viewBox="0 0 300 53.9"><defs><style>.cls-1{fill:#fff;}.cls-2{fill:none;}</style></defs><title>アセット 1</title><g id="レイヤー_2" data-name="レイヤー 2"><g id="圖層_1" data-name="圖層 1"><path class="cls-1" d="M154.13,47.85l0,0a6.83,6.83,0,0,1,.53-.72,5,5,0,0,1,.69-.68,4,4,0,0,1,.82-.51,2.15,2.15,0,0,1,.92-.21,2.16,2.16,0,0,1,1.69.75,2.24,2.24,0,0,1,.43.76,2.82,2.82,0,0,1,.14.9,4,4,0,0,1-.27,1.43,6.08,6.08,0,0,1-.72,1.35,8,8,0,0,1-1,1.19,7.63,7.63,0,0,1-1.2.94,6.53,6.53,0,0,1-1.25.62,3.41,3.41,0,0,1-1.16.22,2.35,2.35,0,0,1-.71-.12,2,2,0,0,1-.67-.37,2,2,0,0,1-.5-.65,2.15,2.15,0,0,1-.2-1,3.56,3.56,0,0,1,.12-.84,6.29,6.29,0,0,1,.26-.84l3.5-9.84H154l.07-.25h2.87Zm-.32,5.82a2.13,2.13,0,0,0,1.09-.32,4.59,4.59,0,0,0,1-.86,8.58,8.58,0,0,0,.92-1.22,10.25,10.25,0,0,0,.75-1.41,9.53,9.53,0,0,0,.49-1.44,5.29,5.29,0,0,0,.18-1.28,1.07,1.07,0,0,0-.32-.84,1.28,1.28,0,0,0-.88-.29,2,2,0,0,0-1,.31,4.84,4.84,0,0,0-1,.83,8,8,0,0,0-.92,1.19,10.06,10.06,0,0,0-.75,1.39,9.92,9.92,0,0,0-.5,1.43,5.16,5.16,0,0,0-.19,1.32Q152.69,53.67,153.81,53.67Z"/><path class="cls-1" d="M162.95,47.2l.29-1h-1.56l.07-.25h2.77q-.09.38-.26,1T163.88,48l0,0,.45-.65a6.24,6.24,0,0,1,.61-.73,3.57,3.57,0,0,1,.75-.59,1.71,1.71,0,0,1,.88-.24,1.32,1.32,0,0,1,1,.38,1.1,1.1,0,0,1,.33.81,1,1,0,0,1-.1.48.74.74,0,0,1-.25.29,1,1,0,0,1-.31.13,1.4,1.4,0,0,1-.31,0,.65.65,0,0,1-.41-.13.45.45,0,0,1-.16-.38.46.46,0,0,1,.08-.3l.17-.19.17-.2a.47.47,0,0,0,.08-.29.34.34,0,0,0-.14-.29.58.58,0,0,0-.36-.11,1.36,1.36,0,0,0-.79.35,5.49,5.49,0,0,0-.89.9,9.21,9.21,0,0,0-.84,1.25,9.12,9.12,0,0,0-.65,1.4L162,53.69H160.7l1.94-5.53Q162.8,47.69,162.95,47.2Z"/><path class="cls-1" d="M174.16,52.32a3,3,0,0,0-.12.77q0,.47.45.47a1.08,1.08,0,0,0,.65-.21,2.45,2.45,0,0,0,.49-.47,3.23,3.23,0,0,0,.34-.52l.19-.37.23.13a5.68,5.68,0,0,1-.27.5,2.77,2.77,0,0,1-.47.58,3.05,3.05,0,0,1-.66.48,1.81,1.81,0,0,1-.88.21q-1.19,0-1.19-1.08a3.07,3.07,0,0,1,.05-.44,3.36,3.36,0,0,1,.14-.57h0l-.57.67a5.24,5.24,0,0,1-.73.68,4,4,0,0,1-.89.52,2.73,2.73,0,0,1-1.08.21,2,2,0,0,1-.73-.13,1.71,1.71,0,0,1-.62-.41,1.93,1.93,0,0,1-.42-.71,3.07,3.07,0,0,1-.15-1,3.84,3.84,0,0,1,.29-1.44,6.81,6.81,0,0,1,.75-1.37A7.5,7.5,0,0,1,170,47.6a9.86,9.86,0,0,1,1.22-1,6.37,6.37,0,0,1,1.22-.65,3,3,0,0,1,1.07-.23,1.41,1.41,0,0,1,.92.31,1,1,0,0,1,.38.81h0l.31-.88h1.26l-2,5.44Q174.28,51.89,174.16,52.32Zm.41-4.8a1.72,1.72,0,0,0,.06-.42,1.53,1.53,0,0,0,0-.35,1,1,0,0,0-.16-.35,1,1,0,0,0-.83-.4,2.26,2.26,0,0,0-1.16.33,4.61,4.61,0,0,0-1.06.87,7.52,7.52,0,0,0-.91,1.23,11,11,0,0,0-.71,1.4,9.25,9.25,0,0,0-.46,1.37,5,5,0,0,0-.16,1.17,1.74,1.74,0,0,0,.22.93.81.81,0,0,0,.75.36,2.05,2.05,0,0,0,1.06-.32,5.11,5.11,0,0,0,1-.77,7.35,7.35,0,0,0,.77-.9,3.18,3.18,0,0,0,.41-.7l1-2.64Q174.51,47.76,174.58,47.52Z"/><path class="cls-1" d="M178.46,46.23l.07-.25h2.84l-.74,2.21h0q1.74-2.32,3.29-2.32a1.7,1.7,0,0,1,1.19.4,1.3,1.3,0,0,1,.44,1,1.9,1.9,0,0,1-.1.6l-.24.71-1.17,3.32q-.11.31-.2.6a2,2,0,0,0-.09.58.87.87,0,0,0,.09.4.38.38,0,0,0,.38.18,1,1,0,0,0,.59-.18,2.57,2.57,0,0,0,.49-.43,3.22,3.22,0,0,0,.39-.53q.16-.28.25-.48l.2.09-.25.48a3,3,0,0,1-.42.58,2.41,2.41,0,0,1-.64.49,1.84,1.84,0,0,1-.9.21,1.77,1.77,0,0,1-1-.25.9.9,0,0,1-.39-.83,2,2,0,0,1,.06-.48q.06-.25.15-.54l1.51-4.29a2.37,2.37,0,0,0,.14-.72.77.77,0,0,0-.15-.45.63.63,0,0,0-.55-.22,1.91,1.91,0,0,0-.92.3,5.1,5.1,0,0,0-1,.81,7.43,7.43,0,0,0-1,1.2,6.86,6.86,0,0,0-.75,1.5l-1.35,3.75h-1.24l2.59-7.45Z"/><path class="cls-1" d="M193.45,52.32a3,3,0,0,0-.12.77q0,.47.45.47a1.08,1.08,0,0,0,.65-.21,2.45,2.45,0,0,0,.49-.47,3.24,3.24,0,0,0,.34-.52l.19-.37.23.13q-.09.2-.27.5a2.78,2.78,0,0,1-.47.58,3.05,3.05,0,0,1-.66.48,1.81,1.81,0,0,1-.88.21q-1.19,0-1.19-1.08a3.06,3.06,0,0,1,.05-.44,3.38,3.38,0,0,1,.14-.57h0l-.57.67a5.25,5.25,0,0,1-.73.68,4,4,0,0,1-.89.52,2.73,2.73,0,0,1-1.08.21,2,2,0,0,1-.73-.13,1.71,1.71,0,0,1-.62-.41,1.93,1.93,0,0,1-.42-.71,3.07,3.07,0,0,1-.15-1,3.84,3.84,0,0,1,.29-1.44,6.81,6.81,0,0,1,.75-1.37,7.51,7.51,0,0,1,1.06-1.21,9.86,9.86,0,0,1,1.22-1,6.37,6.37,0,0,1,1.22-.65,3,3,0,0,1,1.07-.23,1.41,1.41,0,0,1,.92.31,1,1,0,0,1,.38.81h0l2.33-6.57h-1.58l.07-.25h2.86l-4.08,11.39Q193.57,51.89,193.45,52.32Zm.41-4.8a1.72,1.72,0,0,0,.06-.42,1.53,1.53,0,0,0,0-.35,1,1,0,0,0-.16-.35,1,1,0,0,0-.84-.4,2.26,2.26,0,0,0-1.16.33,4.61,4.61,0,0,0-1.06.87,7.51,7.51,0,0,0-.91,1.23,11,11,0,0,0-.71,1.4,9.25,9.25,0,0,0-.46,1.37,5,5,0,0,0-.16,1.17,1.74,1.74,0,0,0,.22.93.81.81,0,0,0,.75.36,2.05,2.05,0,0,0,1.06-.32,5.11,5.11,0,0,0,1-.77,7.37,7.37,0,0,0,.77-.9,3.19,3.19,0,0,0,.41-.7l1-2.64Q193.8,47.76,193.86,47.52Z"/><path class="cls-1" d="M203.5,47.2l.29-1h-1.56l.07-.25h2.77q-.09.38-.26,1T204.43,48l0,0,.45-.65a6.23,6.23,0,0,1,.61-.73,3.57,3.57,0,0,1,.75-.59,1.71,1.71,0,0,1,.88-.24,1.32,1.32,0,0,1,1,.38,1.1,1.1,0,0,1,.33.81,1,1,0,0,1-.1.48.74.74,0,0,1-.25.29,1,1,0,0,1-.31.13,1.4,1.4,0,0,1-.31,0,.65.65,0,0,1-.41-.13.45.45,0,0,1-.16-.38.46.46,0,0,1,.08-.3l.17-.19.17-.2a.47.47,0,0,0,.08-.29.34.34,0,0,0-.14-.29.58.58,0,0,0-.36-.11,1.36,1.36,0,0,0-.79.35,5.49,5.49,0,0,0-.89.9,9.22,9.22,0,0,0-.83,1.25,9.11,9.11,0,0,0-.65,1.4l-1.29,3.66h-1.26l1.94-5.53Q203.35,47.69,203.5,47.2Z"/><path class="cls-1" d="M214.15,52.39a3.28,3.28,0,0,1-.59.66,4,4,0,0,1-.92.59,3.06,3.06,0,0,1-1.32.26,3,3,0,0,1-1.3-.25,2.51,2.51,0,0,1-.86-.65,2.55,2.55,0,0,1-.48-.87,3,3,0,0,1-.15-.92,4.45,4.45,0,0,1,.44-1.86,7.07,7.07,0,0,1,1.15-1.76,6.5,6.5,0,0,1,1.61-1.32,3.61,3.61,0,0,1,1.83-.52,3.26,3.26,0,0,1,.72.08,2.37,2.37,0,0,1,.65.24,1.42,1.42,0,0,1,.47.41,1,1,0,0,1,.18.61,1.44,1.44,0,0,1-.26.85,2.34,2.34,0,0,1-.67.63,4.71,4.71,0,0,1-.91.44,7.11,7.11,0,0,1-1,.28q-.47.1-.85.14l-.57,0-.59,0-.5-.05q-.2.57-.33,1.14a5.14,5.14,0,0,0-.13,1.19,1.9,1.9,0,0,0,.5,1.45,1.78,1.78,0,0,0,1.28.48,2.2,2.2,0,0,0,1-.22,3.45,3.45,0,0,0,.77-.53,4,4,0,0,0,.56-.62l.37-.49.22.13A4.85,4.85,0,0,0,214.15,52.39Zm.07-6.13a.9.9,0,0,0-.72-.25,2,2,0,0,0-1.07.32,4.17,4.17,0,0,0-.92.8,6,6,0,0,0-.72,1,6.42,6.42,0,0,0-.47,1,5.36,5.36,0,0,0,.92.07,3.73,3.73,0,0,0,1.22-.2,3.77,3.77,0,0,0,1-.52,2.61,2.61,0,0,0,.7-.75,1.71,1.71,0,0,0,.26-.9A.91.91,0,0,0,214.22,46.25Z"/><path class="cls-1" d="M219.84,46l-2.07,5.93a5.61,5.61,0,0,0-.22.67,2.08,2.08,0,0,0-.07.44.78.78,0,0,0,.13.45.51.51,0,0,0,.46.2,2,2,0,0,0,1.05-.37,6,6,0,0,0,1.1-.94,8.57,8.57,0,0,0,1-1.28,7.2,7.2,0,0,0,.7-1.41L223.2,46h1.26l-2.12,6.09-.18.55a1.72,1.72,0,0,0-.09.53.56.56,0,0,0,.13.37.46.46,0,0,0,.38.15,1,1,0,0,0,.58-.2,2.81,2.81,0,0,0,.5-.46,3.84,3.84,0,0,0,.39-.53,4.32,4.32,0,0,0,.23-.43l.22.09-.22.44a2.79,2.79,0,0,1-.42.59,2.52,2.52,0,0,1-.66.51,1.92,1.92,0,0,1-.93.22,1.63,1.63,0,0,1-.94-.24.92.92,0,0,1-.35-.82,2.32,2.32,0,0,1,.07-.58,5.28,5.28,0,0,1,.22-.64l0,0q-.25.32-.6.73a7.49,7.49,0,0,1-.75.75,4.6,4.6,0,0,1-.86.59,2,2,0,0,1-.94.24,1.9,1.9,0,0,1-1.22-.36,1.25,1.25,0,0,1-.45-1,2,2,0,0,1,.13-.64l.22-.66,1.76-5h-1.6l.07-.25Z"/><path class="cls-1" d="M226.82,49a1.51,1.51,0,0,1-.22-.84,1.88,1.88,0,0,1,.22-.84,2.73,2.73,0,0,1,.59-.78,3,3,0,0,1,.91-.57,3,3,0,0,1,1.14-.22,2,2,0,0,1,1.21.33,1,1,0,0,1,.46.85.66.66,0,0,1-.74.75.7.7,0,0,1-.44-.14.49.49,0,0,1-.19-.41.5.5,0,0,1,.12-.37.4.4,0,0,0,.12-.3q0-.47-.61-.47a2,2,0,0,0-.75.13,1.46,1.46,0,0,0-.52.34,1.38,1.38,0,0,0-.31.48,1.55,1.55,0,0,0-.1.54,1.33,1.33,0,0,0,.18.67,7.38,7.38,0,0,0,.5.75l1.06,1.38a1.57,1.57,0,0,1,.3.57,2.28,2.28,0,0,1,.08.6,1.88,1.88,0,0,1-.31,1.07,2.73,2.73,0,0,1-.76.76,3.52,3.52,0,0,1-1,.46,3.62,3.62,0,0,1-1,.15,3.41,3.41,0,0,1-.79-.09,2.5,2.5,0,0,1-.67-.26,1.44,1.44,0,0,1-.48-.43,1,1,0,0,1-.18-.6.74.74,0,0,1,.26-.62,1,1,0,0,1,.66-.21.44.44,0,0,1,.3.12.36.36,0,0,1,.13.28.93.93,0,0,1-.09.4.93.93,0,0,0-.09.4.65.65,0,0,0,.28.6,1.37,1.37,0,0,0,.73.17,2.09,2.09,0,0,0,.8-.14,2.06,2.06,0,0,0,.59-.36,1.49,1.49,0,0,0,.37-.48,1.2,1.2,0,0,0,.13-.5,1.71,1.71,0,0,0-.12-.65,3,3,0,0,0-.39-.65l-.9-1.19Q227,49.34,226.82,49Z"/><path class="cls-1" d="M237.44,52.39a3.28,3.28,0,0,1-.59.66,4,4,0,0,1-.92.59,3.06,3.06,0,0,1-1.32.26,3,3,0,0,1-1.3-.25,2.51,2.51,0,0,1-.86-.65,2.55,2.55,0,0,1-.48-.87,3,3,0,0,1-.15-.92,4.45,4.45,0,0,1,.44-1.86,7.08,7.08,0,0,1,1.15-1.76A6.5,6.5,0,0,1,235,46.27a3.61,3.61,0,0,1,1.83-.52,3.27,3.27,0,0,1,.72.08,2.37,2.37,0,0,1,.65.24,1.42,1.42,0,0,1,.47.41,1,1,0,0,1,.18.61,1.44,1.44,0,0,1-.26.85,2.34,2.34,0,0,1-.67.63A4.71,4.71,0,0,1,237,49a7.1,7.1,0,0,1-1,.28q-.47.1-.85.14l-.57,0-.59,0-.5-.05q-.2.57-.33,1.14a5.14,5.14,0,0,0-.13,1.19,1.9,1.9,0,0,0,.5,1.45,1.78,1.78,0,0,0,1.28.48,2.2,2.2,0,0,0,1-.22,3.44,3.44,0,0,0,.77-.53,4,4,0,0,0,.56-.62l.37-.49.22.13A4.89,4.89,0,0,0,237.44,52.39Zm.07-6.13a.9.9,0,0,0-.72-.25,2,2,0,0,0-1.07.32,4.17,4.17,0,0,0-.92.8,6,6,0,0,0-.72,1,6.42,6.42,0,0,0-.47,1,5.35,5.35,0,0,0,.92.07,3.73,3.73,0,0,0,1.22-.2,3.77,3.77,0,0,0,1-.52,2.61,2.61,0,0,0,.7-.75,1.71,1.71,0,0,0,.26-.9A.91.91,0,0,0,237.51,46.25Z"/><polygon class="cls-1" points="136.77 50.57 144.52 49.39 136.81 48.21 91.64 49.39 136.77 50.57 136.77 50.57"/><polygon class="cls-1" points="247.12 49.39 254.88 50.57 300 49.39 254.83 48.21 247.12 49.39 247.12 49.39"/><path class="cls-1" d="M127.29.78,128,9.56h-.76a14.58,14.58,0,0,0-1.92-4.2,9,9,0,0,0-2.83-2.73,6.56,6.56,0,0,0-3.39-1,4.85,4.85,0,0,0-2.42.58,3.63,3.63,0,0,0-1.52,1.59A7.57,7.57,0,0,0,114.7,7V25.81a12.11,12.11,0,0,0,.28,3.08,3.66,3.66,0,0,0,1.09,1.71,7.7,7.7,0,0,0,4.2,1.68V33H103.63v-.73a7.35,7.35,0,0,0,4.49-1.94,3.65,3.65,0,0,0,.87-1.68,13.14,13.14,0,0,0,.24-2.86V7a6.87,6.87,0,0,0-.64-3.4,3.48,3.48,0,0,0-1.49-1.38,5,5,0,0,0-2.29-.51,6.91,6.91,0,0,0-4.88,2.11,12.86,12.86,0,0,0-3.29,5.77h-.73L96.64.78Zm-29.87.87-.33,3.47A14.58,14.58,0,0,1,98.81,3a8.4,8.4,0,0,1,1.84-1.3ZM107.9,31.81h6.92l-.92-.68a4.84,4.84,0,0,1-1.06-1,2,2,0,0,1-.21-1v-.78a1.89,1.89,0,0,0,0-.26.84.84,0,0,1,0-.14V5.86a.83.83,0,0,1,0-.14,1.89,1.89,0,0,0,0-.26V4.68a2,2,0,0,1,.26-1.1,3.88,3.88,0,0,1,1-.91l1.35-1H108l1.11,1a3.29,3.29,0,0,1,.8,1,2.38,2.38,0,0,1,.21,1.05v.78a3.66,3.66,0,0,1,0,.4V27.93a3.66,3.66,0,0,1,0,.4v.78a2,2,0,0,1-.22,1.06,4.31,4.31,0,0,1-1,.94ZM125.49,1.65h-3.42a8.83,8.83,0,0,1,2.1,1.19,9.79,9.79,0,0,1,1.77,1.95Z"/><path class="cls-1" d="M129.91,16.93a16.57,16.57,0,0,1,1.32-6.54,17.09,17.09,0,0,1,3.67-5.47A16.79,16.79,0,0,1,146.84,0a16.44,16.44,0,0,1,8.47,2.28,17,17,0,0,1,6.16,6.17,16.5,16.5,0,0,1,2.28,8.48,16.79,16.79,0,0,1-4.94,11.92,17.19,17.19,0,0,1-5.41,3.67,16.26,16.26,0,0,1-6.49,1.31,16.94,16.94,0,0,1-14.73-8.42A16.54,16.54,0,0,1,129.91,16.93Zm9.8,14.52a14.27,14.27,0,0,1-3.48-3.67,16,16,0,0,1-2.08-4.9,25.19,25.19,0,0,1-.7-6.12,21,21,0,0,1,1.5-8.37,14.66,14.66,0,0,1,4.76-5.92,17.45,17.45,0,0,0-4.81,3.68,15.6,15.6,0,0,0-3,4.92,16,16,0,0,0-1.05,5.82,16.17,16.17,0,0,0,1.05,5.82,15.81,15.81,0,0,0,3,5A18,18,0,0,0,139.71,31.45Zm-3.85-14.69a25.25,25.25,0,0,0,.78,6.43,15.83,15.83,0,0,0,2.23,5.05,10.14,10.14,0,0,0,3.49,3.2,9.31,9.31,0,0,0,4.52,1.11,9.41,9.41,0,0,0,7.06-3.21,13.36,13.36,0,0,0,2.85-5.21,24.92,24.92,0,0,0,1-7.4,25.93,25.93,0,0,0-.77-6.56,15.57,15.57,0,0,0-2.2-5A10.13,10.13,0,0,0,151.38,2,9.28,9.28,0,0,0,146.84.92,9.15,9.15,0,0,0,142.32,2a10.23,10.23,0,0,0-3.46,3.21,16,16,0,0,0-2.22,5.05A25.35,25.35,0,0,0,135.86,16.77Zm16.81,14.71q8.64-5,8.64-14.55a18,18,0,0,0-1-5.87,16.24,16.24,0,0,0-2.72-5,13.8,13.8,0,0,0-4.12-3.48q5.17,4.53,5.17,14.12a27.59,27.59,0,0,1-.51,5.37,19.45,19.45,0,0,1-1.4,4.47,11.82,11.82,0,0,1-1,1.72,11.38,11.38,0,0,1-1.28,1.52A22.42,22.42,0,0,1,152.67,31.48Z"/><path class="cls-1" d="M174.46,15.51V25a13.21,13.21,0,0,0,.24,3,4,4,0,0,0,.94,1.73,6.2,6.2,0,0,0,3.65,1.64V32H164.6v-.72a5.43,5.43,0,0,0,3.62-1.92q.88-1.11.88-4.41V7.57a14.26,14.26,0,0,0-.23-3A3.57,3.57,0,0,0,168,2.9a6,6,0,0,0-3.42-1.66V.52l.58,0,2,.12q1.22.07,2.84.07,2.56,0,4.64-.21l3.23-.28q1.52-.14,3-.14a19.55,19.55,0,0,1,4.87.55,11,11,0,0,1,3.63,1.59,7.31,7.31,0,0,1,2.29,2.55,7.06,7.06,0,0,1,.81,3.38A5.93,5.93,0,0,1,190.38,13a11.12,11.12,0,0,1-6.32,2,12.81,12.81,0,0,1,4.38,2.78,32.39,32.39,0,0,1,4.26,5.76,45.93,45.93,0,0,0,4.41,6.23,9.34,9.34,0,0,0,3.58,2.49V33a20.66,20.66,0,0,1-4.28-.46,12.2,12.2,0,0,1-3.52-1.48,17.51,17.51,0,0,1-4.13-3.67,25.71,25.71,0,0,1-3.39-5.29l-1.22-2.56a14.2,14.2,0,0,0-1.55-2.62A3.4,3.4,0,0,0,181,15.81a8.44,8.44,0,0,0-2.52-.3Zm-6.63,15.36h6.74l-.9-.67a4.19,4.19,0,0,1-1-.92,2,2,0,0,1-.22-1q0-.37,0-.5c0-.08,0-.17,0-.27V5.09c0-.09,0-.18,0-.28s0-.25,0-.48a2,2,0,0,1,.2-1,3.31,3.31,0,0,1,.87-.85l.16-.12,1.29-1-.83,0q-2.1.14-3.79.14-1,0-2.84-.07l1.22.88a3.35,3.35,0,0,1,1,.89A2.08,2.08,0,0,1,170,4.33q0,.39,0,.76V27.47q0,.37,0,.76a2.05,2.05,0,0,1-.21,1.05,4,4,0,0,1-1,.91Zm6.63-16.28h4.13a12,12,0,0,0,5.15-.81,5.06,5.06,0,0,0,2.21-2.23,7.35,7.35,0,0,0,.8-3.48,7.15,7.15,0,0,0-.94-3.65,6.44,6.44,0,0,0-2.61-2.51A8,8,0,0,0,179.38,1q-3.19,0-4.29,2a7.69,7.69,0,0,0-.62,3.56ZM198,32.06a18.69,18.69,0,0,1-2-1.22,16.71,16.71,0,0,1-1.78-1.55,24.07,24.07,0,0,1-1.88-2.24q-.68-.95-2.25-3.53a40.06,40.06,0,0,0-2.67-4,13.7,13.7,0,0,0-2.39-2.45,11.59,11.59,0,0,0-2.66-1.52,12.4,12.4,0,0,1,1.52,1.87q.32.51,1.15,2.15l.5.95q.24.46.47,1a24.67,24.67,0,0,0,5.31,7.33A13.85,13.85,0,0,0,198,32.06ZM183.46,14.68a12.14,12.14,0,0,0,2.83-1,8.14,8.14,0,0,0,2.11-1.48,5.93,5.93,0,0,0,1.28-1.89,5.62,5.62,0,0,0,.45-2.22,6.12,6.12,0,0,0-1.8-4.39,8.48,8.48,0,0,0-4.76-2.4A8.34,8.34,0,0,1,185.8,3a6.82,6.82,0,0,1,1.36,2.25A7.82,7.82,0,0,1,187.62,8a7.73,7.73,0,0,1-1,4.12A6.86,6.86,0,0,1,183.46,14.68Z"/><path class="cls-1" d="M221.79,21.09H209.62l-1.32,3a9.84,9.84,0,0,0-.94,3.66,3.9,3.9,0,0,0,.55,2.11,4.2,4.2,0,0,0,1.65,1.46,10.75,10.75,0,0,0,2.89.93V33H200.2V32.3A8.52,8.52,0,0,0,204,29.66a25.37,25.37,0,0,0,3.36-5.88L217.82.17h.61l11.36,25.53a.22.22,0,0,1,.08.13A1.73,1.73,0,0,0,230,26l.13.26,1,2.15a7.55,7.55,0,0,0,1.94,2.6,6.44,6.44,0,0,0,2.72,1.23V33H220.72v-.73a11,11,0,0,0,2.74-.45,2.27,2.27,0,0,0,1.7-2.22,7.67,7.67,0,0,0-.76-2.55ZM207.88,31.81a7.46,7.46,0,0,1-1.13-1.74,4.15,4.15,0,0,1-.33-1.66q0-.4,0-.64A13.07,13.07,0,0,1,205,30a10.87,10.87,0,0,1-1.91,1.76Zm13.46-11.71L215.65,7.27,210,20.09ZM216.14,6.26l9.09,20.47.24.52a6.44,6.44,0,0,1,.73,2.31A3.47,3.47,0,0,1,225,31.81h6.23a10.62,10.62,0,0,1-1.84-2.28A35.52,35.52,0,0,1,227.62,26L217.49,3.16Z"/><path class="cls-1" d="M257.26,31.57h-.57L243.8,5.9l-1.39,16q-.12,1.32-.12,2.5a8.69,8.69,0,0,0,1.4,5.31,7.5,7.5,0,0,0,4.55,2.57V33H235.35v-.73a8.65,8.65,0,0,0,3-1.85,8.53,8.53,0,0,0,2-2.89,21.17,21.17,0,0,0,1.11-5.79l1.49-17A6.24,6.24,0,0,0,241,2.31a5.84,5.84,0,0,0-2.93-.8V.78h11.43l-.12.31a4.85,4.85,0,0,0-.45,1.7,9.25,9.25,0,0,0,1.2,3.54l9.14,18.13L266.8,6.82a9.27,9.27,0,0,0,.9-3.24,6.06,6.06,0,0,0-.94-2.81h11.36v.73a6,6,0,0,0-3.42,1.38A4.15,4.15,0,0,0,273.63,6a9.72,9.72,0,0,0,.07,1.2l.07.59,2,17.52.08.61q0,.26.22,1.49a6.24,6.24,0,0,0,1.41,3.4,5.66,5.66,0,0,0,3.25,1.49V33h-15v-.73a8.93,8.93,0,0,0,3.65-1.62,3.2,3.2,0,0,0,1.17-2.54,18.16,18.16,0,0,0-.17-1.94L268,6Zm-13.84.24a10.33,10.33,0,0,1-1.55-2,6.94,6.94,0,0,1-.63-2A8.87,8.87,0,0,1,240,30a10.13,10.13,0,0,1-2,1.77Zm13.48-1.61,1.3-3.07L247.35,5.5a6.65,6.65,0,0,1-.8-2.43,2.77,2.77,0,0,1,.38-1.39h-5.43a7.24,7.24,0,0,1,2,2A22.26,22.26,0,0,1,245,6.35ZM269,31.81h7.25l-1.23-1A4.18,4.18,0,0,1,274,28.05L271.38,5.5q0-.61,0-.85a1.77,1.77,0,0,1,.24-.93,4.37,4.37,0,0,1,1-1l1.35-1.06h-5.48l3,26,.09.52q0,.57,0,.85a1.63,1.63,0,0,1-.22.92,4.49,4.49,0,0,1-1,.9Z"/><path class="cls-1" d="M283.75,33v-.73a5.55,5.55,0,0,0,3.71-2q.9-1.13.9-4.51V8a14.6,14.6,0,0,0-.24-3.12,3.65,3.65,0,0,0-.87-1.65,5.75,5.75,0,0,0-3.49-1.7V.78h14.71v.73a5.65,5.65,0,0,0-3.73,2A4,4,0,0,0,294,5.11,14.94,14.94,0,0,0,293.84,8V25.81a13.86,13.86,0,0,0,.25,3,3.92,3.92,0,0,0,.89,1.74,5.75,5.75,0,0,0,3.49,1.7V33Zm3.31-1.2H294l-.92-.68a4.29,4.29,0,0,1-1-.94,2,2,0,0,1-.22-1.06q0-.38,0-.51c0-.09,0-.18,0-.27V5.45c0-.09,0-.19,0-.28s0-.26,0-.5A2,2,0,0,1,292,3.61a4.3,4.3,0,0,1,1-.94l1.35-1h-7.75l1.35,1a4.34,4.34,0,0,1,1,.92,2.09,2.09,0,0,1,.21,1.09q0,.4,0,.78V28.34q0,.38,0,.78a2.1,2.1,0,0,1-.21,1.07,4.13,4.13,0,0,1-1,.93Z"/><path class="cls-1" d="M51.32,34.59a.77.77,0,0,1-.62-.31,12.47,12.47,0,0,1,4.13-18.41.77.77,0,0,1,.73,1.36,10.92,10.92,0,0,0-3.62,16.13.77.77,0,0,1-.62,1.23Z"/><path class="cls-1" d="M55.83,38.26a.77.77,0,0,1-.32-.07,12.47,12.47,0,0,1-3.13-2.07.77.77,0,1,1,1-1.15,10.92,10.92,0,0,0,2.75,1.81.77.77,0,0,1-.32,1.47Z"/><path class="cls-2" d="M64.45,12.3a15.23,15.23,0,0,0-5.68-.3,15,15,0,1,0,5.68.3Z"/><path class="cls-1" d="M6.34,18.65l.75.29,0,.06a1.34,1.34,0,0,0-.42,0,.83.83,0,0,0-.34.12.6.6,0,0,0-.22.24.44.44,0,0,0-.05.22.33.33,0,0,0,.07.19.7.7,0,0,0,.24.16l1.55.76a1.11,1.11,0,0,0,.27.1.34.34,0,0,0,.18,0,.71.71,0,0,0,.31-.28l.06,0L8,21.9l-.06,0a.67.67,0,0,0,0-.45.33.33,0,0,0-.1-.14,1.2,1.2,0,0,0-.23-.13l-1.55-.76a.63.63,0,0,0-.31-.08.32.32,0,0,0-.17.07.45.45,0,0,0-.13.17.63.63,0,0,0,0,.49,1.18,1.18,0,0,0,.34.5l0,.06-.69-.41ZM5.2,21.14l.27.17a1.33,1.33,0,0,1-.11-.23.76.76,0,0,1,0-.2Zm2.91.35.28-.57L8.3,21l-.12,0-.09,0L8,21H8l-1.82-.89h0l-.06,0A.18.18,0,0,1,6,19.95a.35.35,0,0,1,0-.12l0-.15-.29.6.13-.05.11,0,.1,0,.06,0h0l1.82.89,0,0,.06,0a.18.18,0,0,1,.08.06.39.39,0,0,1,0,.12ZM6.34,18.83l-.14.28A.81.81,0,0,1,6.38,19a.89.89,0,0,1,.23-.07Z"/><path class="cls-1" d="M7.83,19a1.52,1.52,0,0,1-.44-.43A1.57,1.57,0,0,1,7.15,18a1.54,1.54,0,0,1,.22-1.16,1.51,1.51,0,0,1,.6-.54,1.56,1.56,0,0,1,.78-.17,1.55,1.55,0,0,1,1.2.67,1.54,1.54,0,0,1,.24.55,1.58,1.58,0,0,1,0,.6,1.49,1.49,0,0,1-.22.56,1.55,1.55,0,0,1-1.38.71A1.52,1.52,0,0,1,7.83,19Zm1.61,0a1.31,1.31,0,0,1-.46.08A1.46,1.46,0,0,1,8.5,19,2.31,2.31,0,0,1,8,18.71a1.92,1.92,0,0,1-.57-.53,1.34,1.34,0,0,1-.22-.66,1.6,1.6,0,0,0,0,.55,1.43,1.43,0,0,0,.23.48,1.53,1.53,0,0,0,.9.58,1.45,1.45,0,0,0,.53,0A1.65,1.65,0,0,0,9.44,19Zm-1.32-.44a2.31,2.31,0,0,0,.53.26,1.45,1.45,0,0,0,.5.08.93.93,0,0,0,.42-.11.85.85,0,0,0,.31-.29.86.86,0,0,0,.11-.7,1.23,1.23,0,0,0-.26-.48,2.28,2.28,0,0,0-.52-.45,2.38,2.38,0,0,0-.54-.27,1.43,1.43,0,0,0-.49-.08.93.93,0,0,0-.42.11.85.85,0,0,0-.31.29.84.84,0,0,0-.14.4.94.94,0,0,0,.07.43,1.47,1.47,0,0,0,.28.42A2.32,2.32,0,0,0,8.11,18.53Zm2-.56a1.46,1.46,0,0,0-.69-1.39,1.65,1.65,0,0,0-.5-.22,1.49,1.49,0,0,0-.52,0,1.27,1.27,0,0,0-.47.14,1.63,1.63,0,0,1,1.34.31,2.54,2.54,0,0,1,.39.31,1.78,1.78,0,0,1,.27.33,1.08,1.08,0,0,1,.08.16,1,1,0,0,1,.05.17A2.09,2.09,0,0,1,10.08,18Z"/><path class="cls-1" d="M10.28,15.34l.68.58a1.23,1.23,0,0,0,.23.16.37.37,0,0,0,.18,0A.58.58,0,0,0,11.7,16l.05,0-.9,1-.05,0a.51.51,0,0,0,.09-.37.72.72,0,0,0-.26-.33L9.38,15.24a1.35,1.35,0,0,0-.23-.17A.33.33,0,0,0,9,15a.56.56,0,0,0-.33.14l-.05,0,0,0L8.78,15l.18-.2q.16-.18.27-.34l.18-.25.17-.22a1.83,1.83,0,0,1,.34-.31,1,1,0,0,1,.33-.16.69.69,0,0,1,.32,0,.66.66,0,0,1,.29.15.56.56,0,0,1,.22.45,1,1,0,0,1-.24.57,1.2,1.2,0,0,1,.47-.14,3,3,0,0,1,.67,0,4.32,4.32,0,0,0,.71.07.88.88,0,0,0,.4-.1l0,0a1.94,1.94,0,0,1-.29.28,1.14,1.14,0,0,1-.32.16,1.64,1.64,0,0,1-.51.07,2.41,2.41,0,0,1-.58-.08l-.26-.07a1.33,1.33,0,0,0-.28-.05.32.32,0,0,0-.18,0,.79.79,0,0,0-.18.16ZM11,16.75l.41-.48-.1,0h-.13a.18.18,0,0,1-.09,0l0,0,0,0,0,0L9.44,14.88l0,0,0,0,0,0a.19.19,0,0,1-.06-.07.3.3,0,0,1,0-.11v-.17l0,.06L9,14.78l-.18.2.14,0,.12,0a.2.2,0,0,1,.09,0l.06,0,0,0,1.54,1.32,0,0,.05,0a.19.19,0,0,1,.06.08.38.38,0,0,1,0,.13Zm-.75-1.47.25-.29a1.13,1.13,0,0,0,.26-.42.47.47,0,0,0,0-.29.69.69,0,0,0-.2-.27.67.67,0,0,0-.32-.16.6.6,0,0,0-.34,0,.75.75,0,0,0-.3.22.42.42,0,0,0-.12.43.72.72,0,0,0,.21.26Zm.56-.63a1.14,1.14,0,0,0,.1-.26.76.76,0,0,0,0-.24.55.55,0,0,0-.06-.21.53.53,0,0,0-.13-.17.57.57,0,0,0-.42-.14.79.79,0,0,0-.46.19.78.78,0,0,1,.26-.05.64.64,0,0,1,.24,0,.73.73,0,0,1,.22.13.72.72,0,0,1,.23.32A.64.64,0,0,1,10.77,14.65Zm2.13,0-.21.07-.22,0h-.27l-.39-.06-.45-.05a1.29,1.29,0,0,0-.32,0,1.08,1.08,0,0,0-.27.1H11l.22,0,.1,0,.1,0a2.31,2.31,0,0,0,.85.07A1.3,1.3,0,0,0,12.89,14.68Z"/><path class="cls-1" d="M13.77,12.42l-.84.74.09.29a.9.9,0,0,0,.16.31.36.36,0,0,0,.17.11.38.38,0,0,0,.2,0,1,1,0,0,0,.26-.11l0,.05-.84.74,0,0a.78.78,0,0,0,.1-.41,2.33,2.33,0,0,0-.12-.61l-.71-2.26,0,0,2.33,1.07h.06l.2.09a.7.7,0,0,0,.29.06.59.59,0,0,0,.26-.08l0,.05-1,.91,0-.05a1,1,0,0,0,.16-.2.21.21,0,0,0,0-.26.7.7,0,0,0-.21-.13Zm-1.29-.68,1.86.86,0,0a.59.59,0,0,1,.19.12.32.32,0,0,1,.06.22l.43-.38a1,1,0,0,1-.26,0l-.34-.14-2.08-1Zm1.19.64-1.17-.54.39,1.22ZM13.46,14,13.28,14a.38.38,0,0,1-.12-.09l0,0a1.21,1.21,0,0,1,0,.24,1,1,0,0,1,0,.24Z"/><path class="cls-1" d="M17.09,11.19l0,0L14.79,9.84l.67,1.31.11.2a.8.8,0,0,0,.37.35.69.69,0,0,0,.48,0l0,.06-1,.62,0-.06a.79.79,0,0,0,.15-.29.78.78,0,0,0,0-.32,1.94,1.94,0,0,0-.19-.5l-.71-1.4a.57.57,0,0,0-.28-.09.54.54,0,0,0-.27.08l0-.06L15,9.17v0a.44.44,0,0,0,0,.15.85.85,0,0,0,.27.22l1.59,1L16.63,8.8a.85.85,0,0,0-.09-.3.56.56,0,0,0-.21-.17l.88-.55,0,.06a.55.55,0,0,0-.2.27.38.38,0,0,0,.07.29l.06.09,0,0,1,1.27,0,0,.09.1a.57.57,0,0,0,.27.2.52.52,0,0,0,.32,0l0,.06-1.17.73,0-.06a.82.82,0,0,0,.21-.3.29.29,0,0,0,0-.25l-.11-.14L16.69,8.68ZM17,11.1l0-.3L15.05,9.64a.61.61,0,0,1-.18-.15.25.25,0,0,1,0-.13l-.42.26a.66.66,0,0,1,.25.06l.25.13Zm-1,.78a.94.94,0,0,1-.22-.08.63.63,0,0,1-.15-.13.82.82,0,0,1,0,.24.93.93,0,0,1-.07.23Zm2-1.24.56-.35-.14,0a.38.38,0,0,1-.22-.16L16.92,8.47l0-.06a.16.16,0,0,1,0-.08.39.39,0,0,1,0-.12l.05-.15-.43.27L18,10.2l0,0,0,.06a.15.15,0,0,1,0,.08.41.41,0,0,1,0,.12Z"/><path class="cls-1" d="M19.13,10.18l0-.06a.51.51,0,0,0,.23-.31.72.72,0,0,0-.1-.41l-.69-1.48a1.35,1.35,0,0,0-.14-.25.33.33,0,0,0-.14-.1.53.53,0,0,0-.36,0l0-.06,1.22-.57,0,.06a.52.52,0,0,0-.24.31.37.37,0,0,0,0,.16,1.37,1.37,0,0,0,.09.25l.69,1.48a1.27,1.27,0,0,0,.14.24.36.36,0,0,0,.14.11.53.53,0,0,0,.36,0l0,.06Zm.23-.23.57-.26-.1,0-.12,0a.18.18,0,0,1-.06-.08l0,0v0l0,0-.85-1.84,0,0v0l0,0a.18.18,0,0,1,0-.1.39.39,0,0,1,0-.12l.07-.13-.64.3.15,0,.12,0a.19.19,0,0,1,.06.08l0,.06,0,0,.85,1.84,0,0,0,.07a.19.19,0,0,1,0,.1.38.38,0,0,1-.05.12Z"/><path class="cls-1" d="M22.64,7.85l0,.16-.43.17,0-.16Z"/><path class="cls-1" d="M23.9,7.16h0l0-.13A.73.73,0,0,1,24,6.91l.09-.11a.32.32,0,0,1,.12-.07.33.33,0,0,1,.15,0l.12,0a.33.33,0,0,1,.1.09.42.42,0,0,1,.06.12.59.59,0,0,1,0,.21.9.9,0,0,1,0,.22,1.2,1.2,0,0,1-.09.21,1.13,1.13,0,0,1-.13.19,1,1,0,0,1-.15.14.51.51,0,0,1-.15.08L24,8l-.11,0a.29.29,0,0,1-.1-.07.32.32,0,0,1-.07-.13.52.52,0,0,1,0-.12.93.93,0,0,1,0-.13l0-1.55-.22.07v0l.4-.13Zm.22.83a.32.32,0,0,0,.14-.1.68.68,0,0,0,.11-.17,1.27,1.27,0,0,0,.07-.21,1.54,1.54,0,0,0,0-.23,1.41,1.41,0,0,0,0-.23.78.78,0,0,0,0-.19.16.16,0,0,0-.08-.1.19.19,0,0,0-.14,0,.29.29,0,0,0-.13.09A.72.72,0,0,0,24,7a1.18,1.18,0,0,0-.07.21,1.5,1.5,0,0,0,0,.45.77.77,0,0,0,0,.19Q24,8,24.12,8Z"/><path class="cls-1" d="M25.14,6.68V6.53l-.22.06v0l.4-.11s0,.09,0,.15,0,.12,0,.17h0l0-.11.06-.13a.53.53,0,0,1,.08-.11.25.25,0,0,1,.12-.07.2.2,0,0,1,.16,0,.16.16,0,0,1,.08.1.15.15,0,0,1,0,.07.11.11,0,0,1,0,.05l0,0,0,0h-.06a.07.07,0,0,1,0,0,.07.07,0,0,1,0,0l0,0,0,0a.07.07,0,0,0,0,0,.05.05,0,0,0,0,0h-.06a.2.2,0,0,0-.1.08.81.81,0,0,0-.09.16,1.44,1.44,0,0,0-.11.44l0,.57-.18,0,.06-.87S25.14,6.73,25.14,6.68Z"/><path class="cls-1" d="M26.94,7a.44.44,0,0,0,0,.12.06.06,0,0,0,.08.05.16.16,0,0,0,.09-.05L27.17,7l0-.09,0-.06h0l0,.08a.41.41,0,0,1,0,.1l-.08.09a.27.27,0,0,1-.12.06q-.17,0-.21-.12a.44.44,0,0,1,0-.07.49.49,0,0,1,0-.09h0l-.06.12-.08.12-.11.1a.4.4,0,0,1-.15.06h-.11l-.1,0a.29.29,0,0,1-.08-.09A.46.46,0,0,1,26,7.11a.57.57,0,0,1,0-.22,1,1,0,0,1,.06-.22,1.11,1.11,0,0,1,.11-.21l.15-.18.16-.13a.45.45,0,0,1,.15-.07.21.21,0,0,1,.14,0,.15.15,0,0,1,.08.1h0l0-.14.18,0L27,6.87S26.94,7,26.94,7Zm-.1-.71a.26.26,0,0,0,0-.06l0,0,0,0-.05,0h-.08a.33.33,0,0,0-.16.09.69.69,0,0,0-.13.16,1.13,1.13,0,0,0-.09.21,1.62,1.62,0,0,0-.06.23,1.36,1.36,0,0,0,0,.21.74.74,0,0,0,0,.17.26.26,0,0,0,.06.13.12.12,0,0,0,.12,0,.3.3,0,0,0,.14-.08.75.75,0,0,0,.12-.14A1.09,1.09,0,0,0,26.74,7a.47.47,0,0,0,0-.11l.05-.41C26.84,6.37,26.84,6.33,26.84,6.3Z"/><path class="cls-1" d="M27.4,6V6l.41-.07-.05.34h0q.2-.38.42-.42a.25.25,0,0,1,.18,0,.19.19,0,0,1,.09.13.28.28,0,0,1,0,.09l0,.11-.09.51v.09a.3.3,0,0,0,0,.09.13.13,0,0,0,0,.06.06.06,0,0,0,.06,0,.15.15,0,0,0,.08,0l.06-.08,0-.09,0-.08h0l0,.08,0,.1-.08.09a.27.27,0,0,1-.13.05.26.26,0,0,1-.15,0,.13.13,0,0,1-.08-.11.3.3,0,0,1,0-.07V6.7L28.29,6a.35.35,0,0,0,0-.11.11.11,0,0,0,0-.06.09.09,0,0,0-.09,0,.28.28,0,0,0-.13.07.75.75,0,0,0-.13.14,1.1,1.1,0,0,0-.11.2,1,1,0,0,0-.07.24l-.1.58-.18,0L27.64,6Z"/><path class="cls-1" d="M29.73,6.57a.45.45,0,0,0,0,.12.06.06,0,0,0,.07.06.16.16,0,0,0,.09,0L30,6.63l0-.08,0-.06h0l0,.08L30,6.67l-.09.08a.27.27,0,0,1-.13,0q-.17,0-.19-.14a.45.45,0,0,1,0-.07.51.51,0,0,1,0-.09h0l-.07.11-.1.11-.12.09a.4.4,0,0,1-.16,0H29l-.1-.05a.28.28,0,0,1-.07-.1.46.46,0,0,1,0-.15.57.57,0,0,1,0-.22,1,1,0,0,1,.09-.21,1.11,1.11,0,0,1,.14-.2l.16-.16.17-.12a.45.45,0,0,1,.15-.05.21.21,0,0,1,.14,0,.15.15,0,0,1,.07.11h0l.24-1-.23,0v0l.42,0-.41,1.74Zm0-.71a.26.26,0,0,0,0-.06V5.74l0,0-.05,0h-.08a.33.33,0,0,0-.17.07.68.68,0,0,0-.14.15,1.12,1.12,0,0,0-.11.2,1.62,1.62,0,0,0-.08.22,1.36,1.36,0,0,0,0,.21.75.75,0,0,0,0,.17.26.26,0,0,0,0,.13.12.12,0,0,0,.12,0,.3.3,0,0,0,.15-.06.76.76,0,0,0,.13-.13l.1-.14a.47.47,0,0,0,0-.11l.1-.4Z"/><path class="cls-1" d="M31.17,5.7l0-.15H31v0h.41l0,.14,0,.17h0l.06-.1.09-.11.11-.09a.25.25,0,0,1,.13,0,.2.2,0,0,1,.15.05.16.16,0,0,1,.05.12.15.15,0,0,1,0,.07l0,0,0,0h0l-.06,0a.07.07,0,0,1,0-.06.07.07,0,0,1,0,0l0,0,0,0a.07.07,0,0,0,0,0,.05.05,0,0,0,0,0h-.05a.2.2,0,0,0-.12.06.82.82,0,0,0-.13.14,1.44,1.44,0,0,0-.21.4l-.17.55h-.19l.26-.83Z"/><path class="cls-1" d="M32.76,6.45l-.09.1-.14.09a.52.52,0,0,1-.39,0,.37.37,0,0,1-.13-.1.38.38,0,0,1-.07-.13.45.45,0,0,1,0-.14A.66.66,0,0,1,32,6a1,1,0,0,1,.17-.26,1,1,0,0,1,.24-.19.53.53,0,0,1,.27-.07h.11l.1,0,.07.06a.15.15,0,0,1,0,.09.22.22,0,0,1,0,.13.34.34,0,0,1-.1.09L32.7,6l-.14,0-.13,0h-.25q0,.08-.05.17a.76.76,0,0,0,0,.18.28.28,0,0,0,.07.21.26.26,0,0,0,.19.07.32.32,0,0,0,.15,0l.12-.08.08-.09.06-.07,0,0Zm0-.91a.13.13,0,0,0-.11,0,.29.29,0,0,0-.16,0,.61.61,0,0,0-.14.12.9.9,0,0,0-.11.15A1,1,0,0,0,32.2,6h.14a.56.56,0,0,0,.18,0l.15-.08a.39.39,0,0,0,.11-.11.25.25,0,0,0,0-.13A.14.14,0,0,0,32.78,5.55Z"/><path class="cls-1" d="M33.65,5.54l-.36.86,0,.1a.31.31,0,0,0,0,.06.12.12,0,0,0,0,.07.08.08,0,0,0,.07,0,.29.29,0,0,0,.16,0,.89.89,0,0,0,.17-.13,1.26,1.26,0,0,0,.16-.18,1.06,1.06,0,0,0,.12-.2l.22-.53h.19L34,6.47l0,.08a.26.26,0,0,0,0,.08.08.08,0,0,0,0,.06.07.07,0,0,0,.05,0l.09,0,.08-.06.06-.07,0-.06,0,0,0,.06-.07.08-.1.07a.28.28,0,0,1-.14,0,.24.24,0,0,1-.14,0,.14.14,0,0,1,0-.12.34.34,0,0,1,0-.09l0-.09h0l-.1.1-.12.1-.13.08a.29.29,0,0,1-.14,0,.28.28,0,0,1-.18-.06.19.19,0,0,1-.06-.16.3.3,0,0,1,0-.09l0-.1.31-.72-.24,0v0Z"/><path class="cls-1" d="M34.66,6.07a.22.22,0,0,1,0-.13.28.28,0,0,1,0-.12.41.41,0,0,1,.1-.1.45.45,0,0,1,.31-.08.3.3,0,0,1,.17.07.15.15,0,0,1,.05.13.1.1,0,0,1-.12.1l-.06,0a.07.07,0,0,1,0-.06.07.07,0,0,1,0-.05.06.06,0,0,0,0,0s0-.07-.08-.08H35l-.08,0-.05.07a.23.23,0,0,0,0,.08.2.2,0,0,0,0,.1l.06.12.13.22a.23.23,0,0,1,0,.09.34.34,0,0,1,0,.09.28.28,0,0,1-.06.15.41.41,0,0,1-.13.1l-.15.05h-.15l-.11,0-.09,0a.21.21,0,0,1-.06-.07.15.15,0,0,1,0-.09.11.11,0,0,1,0-.09.15.15,0,0,1,.1,0l0,0a.05.05,0,0,1,0,0,.14.14,0,0,1,0,.06.13.13,0,0,0,0,.06.1.1,0,0,0,0,.09.2.2,0,0,0,.1,0h.12l.09,0,.06-.07a.18.18,0,0,0,0-.07.25.25,0,0,0,0-.1.45.45,0,0,0,0-.1l-.11-.19Z"/><path class="cls-1" d="M36.15,6.79l-.1.08-.15.07a.46.46,0,0,1-.2,0,.45.45,0,0,1-.18-.07.37.37,0,0,1-.11-.11.38.38,0,0,1-.05-.14.44.44,0,0,1,0-.14.66.66,0,0,1,.11-.26A1,1,0,0,1,35.67,6a1,1,0,0,1,.27-.16.54.54,0,0,1,.28,0l.1,0,.09.05a.21.21,0,0,1,.06.07.15.15,0,0,1,0,.09.21.21,0,0,1-.06.12.35.35,0,0,1-.11.08l-.14,0L36,6.3h-.21l-.09,0-.07,0-.08.16a.76.76,0,0,0,0,.17.28.28,0,0,0,0,.22.26.26,0,0,0,.18.1.32.32,0,0,0,.15,0L36,6.84l.1-.08.07-.06,0,0Zm.15-.9a.13.13,0,0,0-.1-.05.29.29,0,0,0-.16,0,.62.62,0,0,0-.15.1l-.13.13-.09.14.13,0a.55.55,0,0,0,.18,0l.16-.05a.38.38,0,0,0,.12-.09A.25.25,0,0,0,36.33,6,.13.13,0,0,0,36.31,5.89Z"/><path class="cls-2" d="M64.45,12.3a15.23,15.23,0,0,0-5.68-.3,15,15,0,1,0,5.68.3Z"/><path class="cls-1" d="M51.55,6.36a1.91,1.91,0,1,0,1.91,1.91A1.91,1.91,0,0,0,51.55,6.36Zm0,2.39A.48.48,0,1,1,52,8.27.48.48,0,0,1,51.55,8.75Z"/><path class="cls-2" d="M46.37,14.26a14.54,14.54,0,0,1,5.57-.72c4.34,0,6.82-3.3,7.65-7.18a1.53,1.53,0,0,0,0-.19c.15-1.09-1.12-1.48-1.38-1.55a107,107,0,0,0-25.92-3C20.5,1.46,9.17,4.91,3.53,16,.19,22.52,1.32,29.2,5,33.78a15.66,15.66,0,0,0,3,2.85A16.48,16.48,0,0,0,23.7,38.41c9.83-3.64,9-14.11,16-20.08a24.9,24.9,0,0,1,3.94-2.72A13.5,13.5,0,0,1,46.37,14.26Z"/><path class="cls-2" d="M58.73,12a8.54,8.54,0,0,1-1.38,1.31,9.26,9.26,0,0,1-5.59,1.77h-.22a15.27,15.27,0,0,0-1.32,1.18,15,15,0,1,0,10.61-4.39,15.21,15.21,0,0,0-2.06.14Z"/><path class="cls-1" d="M79.85,19.14a20.59,20.59,0,0,0-11.3-11.3c-1.43-.58-3.34-1.29-4.83-1.73q-1.21-.37-2.41-.7a1.91,1.91,0,0,0-1.52-2A109.06,109.06,0,0,0,43.7.62C39.31.18,35.81.09,33.63.09h-2.2A40.16,40.16,0,0,0,14.58,3.36,25.7,25.7,0,0,0,2.15,15.27,18.74,18.74,0,0,0,0,24.6,17.15,17.15,0,0,0,4.27,35.27L2.58,38.59l.57.5.57.5,3-2a17.12,17.12,0,0,0,2,1.32,17.49,17.49,0,0,0,8.66,2.27,19.88,19.88,0,0,0,6.91-1.28,15.42,15.42,0,0,0,7-5.12A35.21,35.21,0,0,0,35,28c1.52-3.21,3-6.24,5.66-8.53q.67-.57,1.4-1.09-.16.36-.31.72a20.53,20.53,0,1,0,38,0Zm-19-7.28a15.11,15.11,0,0,1,3.63.44,15,15,0,1,1-14.24,4,15.27,15.27,0,0,1,1.32-1.18h.22a9.26,9.26,0,0,0,5.59-1.77A8.54,8.54,0,0,0,58.73,12h0A15.21,15.21,0,0,1,60.83,11.86ZM39.72,18.33c-7.05,6-6.18,16.44-16,20.08A16.48,16.48,0,0,1,8,36.63a15.66,15.66,0,0,1-3-2.85C1.32,29.2.19,22.52,3.53,16,9.17,4.91,20.5,1.46,32.33,1.64a107,107,0,0,1,25.92,3c.26.07,1.53.45,1.38,1.55a1.53,1.53,0,0,1,0,.19c-.83,3.87-3.31,7.13-7.65,7.18a14.54,14.54,0,0,0-5.57.72,13.5,13.5,0,0,0-2.71,1.36A24.9,24.9,0,0,0,39.72,18.33ZM60.83,45.49A18.68,18.68,0,0,1,44.31,18.11a.76.76,0,1,1,1.34.71A17.17,17.17,0,1,0,62.53,9.73a.76.76,0,0,1,.15-1.5,18.68,18.68,0,0,1-1.85,37.26Z"/></g></g></svg>
